<svg xmlns="http://www.w3.org/2000/svg" xmlns:xlink="http://www.w3.org/1999/xlink" viewBox="0 0 1080 1080"><defs><style>.cls-1{isolation:isolate;}.cls-2{fill:url(#linear-gradient);}.cls-3{fill:url(#linear-gradient-2);}.cls-4{fill:url(#linear-gradient-3);}.cls-10,.cls-11,.cls-12,.cls-16,.cls-19,.cls-21,.cls-22,.cls-23,.cls-5,.cls-8{mix-blend-mode:screen;}.cls-5{fill:url(#linear-gradient-4);}.cls-6{fill:url(#linear-gradient-5);}.cls-7{fill:url(#linear-gradient-6);}.cls-8{fill:url(#linear-gradient-7);}.cls-9{fill:url(#linear-gradient-8);}.cls-10{fill:url(#linear-gradient-9);}.cls-11{fill:url(#linear-gradient-10);}.cls-12{fill:url(#linear-gradient-11);}.cls-13{fill:url(#linear-gradient-12);}.cls-14{fill:url(#linear-gradient-13);}.cls-15{fill:url(#linear-gradient-14);}.cls-16{fill:url(#linear-gradient-15);}.cls-17{fill:url(#linear-gradient-16);}.cls-18{fill:url(#linear-gradient-17);}.cls-19{fill:url(#linear-gradient-18);}.cls-20{fill:url(#linear-gradient-19);}.cls-21{fill:url(#linear-gradient-20);}.cls-22{fill:url(#linear-gradient-21);}.cls-23{fill:url(#linear-gradient-22);}.cls-24{fill:url(#linear-gradient-23);}.cls-25{fill:url(#linear-gradient-24);}.cls-26{fill:url(#linear-gradient-25);}.cls-27{fill:url(#linear-gradient-26);}.cls-28{fill:url(#linear-gradient-27);}.cls-29{fill:url(#linear-gradient-28);}.cls-30{fill:url(#linear-gradient-29);}.cls-31{fill:url(#linear-gradient-30);}.cls-32{fill:url(#linear-gradient-31);}.cls-33{fill:url(#linear-gradient-32);}.cls-34{fill:url(#linear-gradient-33);}.cls-35{fill:url(#linear-gradient-34);}.cls-36{fill:url(#linear-gradient-35);}.cls-37{fill:url(#linear-gradient-36);}.cls-38{fill:url(#linear-gradient-37);}.cls-39{fill:url(#linear-gradient-38);}.cls-40{fill:url(#linear-gradient-39);}</style><linearGradient id="linear-gradient" x1="801.46" y1="325.11" x2="801.46" y2="457.27" gradientUnits="userSpaceOnUse"><stop offset="0" stop-color="#ff1f00"/><stop offset="1" stop-color="#fe0"/></linearGradient><linearGradient id="linear-gradient-2" x1="534.83" y1="349.31" x2="534.88" y2="349.63" xlink:href="#linear-gradient"/><linearGradient id="linear-gradient-3" x1="588.87" y1="306.4" x2="588.87" y2="447.56" xlink:href="#linear-gradient"/><linearGradient id="linear-gradient-4" x1="589.72" y1="386.33" x2="589.72" y2="450.96" gradientUnits="userSpaceOnUse"><stop offset="0"/><stop offset="1" stop-color="#ff8400"/></linearGradient><linearGradient id="linear-gradient-5" x1="788.59" y1="324.62" x2="788.65" y2="325" xlink:href="#linear-gradient"/><linearGradient id="linear-gradient-6" x1="929.57" y1="299.24" x2="929.57" y2="443.77" xlink:href="#linear-gradient"/><linearGradient id="linear-gradient-7" x1="852.2" y1="376.22" x2="852.2" y2="447.8" xlink:href="#linear-gradient-4"/><linearGradient id="linear-gradient-8" x1="713.87" y1="302.03" x2="713.87" y2="453.09" xlink:href="#linear-gradient"/><linearGradient id="linear-gradient-9" x1="713.9" y1="386.66" x2="713.9" y2="475.25" xlink:href="#linear-gradient-4"/><linearGradient id="linear-gradient-10" x1="-3898.93" y1="376.23" x2="-3898.93" y2="447.81" gradientTransform="matrix(-1, 0, 0, 1, -2954.37, 0)" xlink:href="#linear-gradient-4"/><linearGradient id="linear-gradient-11" x1="1018.49" y1="409.76" x2="1018.49" y2="463.59" xlink:href="#linear-gradient-4"/><linearGradient id="linear-gradient-12" x1="279.82" y1="325.11" x2="279.82" y2="457.27" xlink:href="#linear-gradient"/><linearGradient id="linear-gradient-13" x1="13.19" y1="349.31" x2="13.24" y2="349.63" xlink:href="#linear-gradient"/><linearGradient id="linear-gradient-14" x1="67.23" y1="306.4" x2="67.23" y2="447.56" xlink:href="#linear-gradient"/><linearGradient id="linear-gradient-15" x1="68.08" y1="386.33" x2="68.08" y2="450.96" xlink:href="#linear-gradient-4"/><linearGradient id="linear-gradient-16" x1="266.95" y1="324.62" x2="267.01" y2="325" xlink:href="#linear-gradient"/><linearGradient id="linear-gradient-17" x1="407.93" y1="299.24" x2="407.93" y2="443.77" xlink:href="#linear-gradient"/><linearGradient id="linear-gradient-18" x1="330.56" y1="376.22" x2="330.56" y2="447.8" xlink:href="#linear-gradient-4"/><linearGradient id="linear-gradient-19" x1="192.22" y1="302.03" x2="192.22" y2="453.09" xlink:href="#linear-gradient"/><linearGradient id="linear-gradient-20" x1="192.26" y1="386.66" x2="192.26" y2="475.25" xlink:href="#linear-gradient-4"/><linearGradient id="linear-gradient-21" x1="-3377.28" y1="376.23" x2="-3377.28" y2="447.81" gradientTransform="matrix(-1, 0, 0, 1, -2954.37, 0)" xlink:href="#linear-gradient-4"/><linearGradient id="linear-gradient-22" x1="496.84" y1="409.76" x2="496.84" y2="463.59" xlink:href="#linear-gradient-4"/><linearGradient id="linear-gradient-23" x1="543.76" y1="771.7" x2="543.76" y2="456.09" gradientUnits="userSpaceOnUse"><stop offset="0"/><stop offset="0.16" stop-color="#0c0000"/><stop offset="0.46" stop-color="#2c0000"/><stop offset="0.85" stop-color="#5f0000"/><stop offset="1" stop-color="#750000"/></linearGradient><linearGradient id="linear-gradient-24" x1="543.76" y1="799.24" x2="543.76" y2="452.35" gradientUnits="userSpaceOnUse"><stop offset="0" stop-color="#ff1f00"/><stop offset="0.22" stop-color="#ff5700"/><stop offset="0.49" stop-color="#ff9700"/><stop offset="0.72" stop-color="#ffc600"/><stop offset="0.9" stop-color="#ffe300"/><stop offset="1" stop-color="#fe0"/></linearGradient><linearGradient id="linear-gradient-25" x1="111.1" y1="732.1" x2="111.1" y2="516.95" xlink:href="#linear-gradient-24"/><linearGradient id="linear-gradient-26" x1="172.12" y1="734.29" x2="172.12" y2="514.87" xlink:href="#linear-gradient-24"/><linearGradient id="linear-gradient-27" x1="232.1" y1="734.29" x2="232.1" y2="514.87" xlink:href="#linear-gradient-24"/><linearGradient id="linear-gradient-28" x1="304.64" y1="732.1" x2="304.64" y2="516.95" xlink:href="#linear-gradient-24"/><linearGradient id="linear-gradient-29" x1="377.62" y1="732.1" x2="377.62" y2="516.95" xlink:href="#linear-gradient-24"/><linearGradient id="linear-gradient-30" x1="426.91" y1="732.1" x2="426.91" y2="516.95" xlink:href="#linear-gradient-24"/><linearGradient id="linear-gradient-31" x1="487.93" y1="732.1" x2="487.93" y2="516.95" xlink:href="#linear-gradient-24"/><linearGradient id="linear-gradient-32" x1="550.11" y1="732.1" x2="550.11" y2="516.95" xlink:href="#linear-gradient-24"/><linearGradient id="linear-gradient-33" x1="611.13" y1="732.1" x2="611.13" y2="516.95" xlink:href="#linear-gradient-24"/><linearGradient id="linear-gradient-34" x1="683.61" y1="732.1" x2="683.61" y2="516.95" xlink:href="#linear-gradient-24"/><linearGradient id="linear-gradient-35" x1="755.06" y1="732.1" x2="755.06" y2="516.95" xlink:href="#linear-gradient-24"/><linearGradient id="linear-gradient-36" x1="810.65" y1="732.1" x2="810.65" y2="516.95" xlink:href="#linear-gradient-24"/><linearGradient id="linear-gradient-37" x1="867.34" y1="732.1" x2="867.34" y2="516.95" xlink:href="#linear-gradient-24"/><linearGradient id="linear-gradient-38" x1="922.94" y1="734.29" x2="922.94" y2="514.87" xlink:href="#linear-gradient-24"/><linearGradient id="linear-gradient-39" x1="982.92" y1="734.29" x2="982.92" y2="514.76" xlink:href="#linear-gradient-24"/></defs><g class="cls-1"><g id="Camada_1" data-name="Camada 1"><path class="cls-2" d="M1042.3,372.81c10.74,17.14,11.79,28.9,5.44,44.09-4,9.54-12.73,10.23-20.32-.38-6.31-8.82,0-22.71,2-31.91,5.5-25.46,23-51.54-16.11-78.14,4,6.17,7.57,15.52,8.26,22.5,1.39,13.82-10.58,14.34-19,12.11-14.35-3.78-12.4-27.67-4.4-41.47C985.05,311,982.46,323,984.63,334.26c2.83,14.7,26.37,36,19.24,49-10.83,19.83-22.62-2.39-15.69-24.65-3.94,6.47-9.87,20.48-8.92,27.67.87,6.54,11.91,20.38,2.49,29.8C967.46,430.4,952,421,950.29,401.79c-1.6-17.65,15.43-34.63,20.55-50.8,6.69-21.09,11.09-34.83-15.1-52,16.54,9.78,3.72,32.48-13.11,24.22-15.12-7.41-9.13-27.64,3.11-34.48-24.11,6.2-35.59,23.16-21.5,55.1,3.71,8.41,17.47,47.85-10.35,52.27-19.13,3-81.26-90.54-37.54-103.35-49.46,11.49-45.18,36.38-43.28,59.62,1.77,21.65,45.93,72.87,2.09,72.87-21.66,0-11.56-35.43-14.85-54.06-3.58-20.3-9.43-25.16-25.89-37.67,9.83,13.69,5.48,31.24,1.1,44.4-.92,2.75-1.91,5.69-2.9,8.72-11-25-30.06-51.39-22.12-78.83-18.81,21.36-20.66,46.47-12.82,64.08,5.25,11.8,31.61,62.39-2.57,62.39-31.61,0,13.68-38.46-23.81-68.23,4.43,7.57,10.14,32.07-1.9,32.07-26.28,0-16.9-47.3-13.15-55.81,14.08-31.94,2.62-48.91-21.5-55.1C707,294,713,314.27,697.86,321.69c-16.82,8.25-29.65-14.45-13.11-24.23-26.2,17.18-21.8,30.92-15.1,52,5.12,16.17,22.15,33.15,20.54,50.8-1.74,19.24-24.08,25.84-34.88,8.77-14.53-22.92,27.72-65.22-32.65-80.52,23.07,11.11,10,32.29,4.25,49.32-.53,1.56-1,3.12-1.5,4.68-16.19-19.29-43.56-45.41-18-77.81-26.36,8.5-36.83,48-32.34,67.57,2.61,11.46,37.77,60,0,60-18.69,0-10-26.68-12.82-42.76-3.09-17.51-8.14-21.71-22.34-32.51,8.48,11.81,4.73,27,.94,38.32-7.2,21.61-11.1,42.7,6.4,62.59,8,9.14,19.95,12.21,32.36,12A95.93,95.93,0,0,0,611.24,467c9.38-2.33,16.41-5.86,21.53-10.31.62,1,1.2,2,1.87,3,16.51,25,54.65,25.68,74.34,25.82,36.68.28,64.62-10.95,79.51-29.81a38.8,38.8,0,0,0,5.42,8.09c9.33,10.6,32.14.78,46.52.57a111.38,111.38,0,0,0,36.7-3.38,74.64,74.64,0,0,0,14.76-5.24A61.58,61.58,0,0,0,894,475c.72,2.54,19.28,8.88,19.24,11.18a162.64,162.64,0,0,0,18.27.89c18.15-.14,52-.78,70.07-20.48a20.15,20.15,0,0,1-2.08-8.51,59.65,59.65,0,0,0,16.39,3.37c28.32,2.22,39.72,7.13,49.46-12.36C1075.46,428.91,1056.46,387.5,1042.3,372.81Z"/><path class="cls-3" d="M534.89,349.49l.15.11-.1-.14C534.58,349.13,534.56,349.13,534.89,349.49Z"/><path class="cls-4" d="M563.73,466.7C540.5,457,540.45,441,543.28,422.6c1.92-12.49,14.66-28.85,8.51-47.77,15.62,18-6.61,66.69,24.6,66.69,32.37,0,21.78-34.14,16-50.39-5.5-15.5-12.24-27.18-4.68-44.87-.94,30.93,61.23,58.76,45.42,99C622.74,471.79,579.45,473.29,563.73,466.7Z"/><path class="cls-5" d="M550.85,415c3.78,49.19,54.86,43.53,54.86,2.85,0-9.41-7.56-21.76-8.51-42.57,5.68,21.76,27.36,36.2,32.16,53,4.45,15.56-7.81,34.22-34.05,37.84C567.88,469.9,542.34,461.38,550.85,415Z"/><path class="cls-6" d="M788.66,324.82l.17.14-.11-.17Q788.09,324.22,788.66,324.82Z"/><path class="cls-7" d="M1055.48,409.75c-.92,9.64-4.28,20.47-14.86,23.12-26.35,6.59-22.11-28.23-16.78-42.14,6.85-17.87,8.35-33.47,5.67-52.47-.57,12.95-21.27,26-28.6,10.72,2,5.27,5.13,9.33,7.83,14.15,5.19,9.27,6.18,20.19-.35,29.43-5.29,7.51-19.43,11-24.29-9.71,2.65,20.31,8.63,25.06,4.42,34.89-6.62,15.45-57.41,20.75-42.93-30.31,4.72-16.63,23.2-39.25,19.78-56.34-7.69,13.68-20.57,18.63-35.89-6,10.46,34.77,12.9,76.53-11.17,80.26-19,2.95-69.46-42.85-63.51-90.47-11.65,5.57-16.15,38.27-2.55,57.83,11.4,16.39,22,58.73-15.5,58.73-36.17,0-10.42-56.45-28.5-77.27,7.13,21.92-7.64,40.89-9.86,55.36-3.29,21.37-3.23,39.8,23.69,51.09,15.18,6.37,101.1,21.85,106.55,21.7,29.07-.78,53.21-4,66.41-20,27.38,0,44.51.31,54.51-4.41C1069.17,448.61,1061.75,423,1055.48,409.75Z"/><path class="cls-8" d="M807.16,400.77c4.38,57,63.57,50.42,63.57,3.29,0-10.9-8.77-25.21-9.87-49.32,6.58,25.21,31.71,41.94,37.27,61.38,5.16,18-9,39.65-39.46,43.85C826.89,464.35,797.29,454.48,807.16,400.77Z"/><path class="cls-9" d="M712.39,480.41c-45.43-1.22-78.89-8.21-77.25-61.22.41-13.1,3.66-25.29,8.72-37.34.33-.3.34-.29,0,0-13.5,60.64,74.41,64.21,51.54,3.64-6.1-16.19-23.2-39.26-19.77-56.35,7.69,13.67,21.84,18,35.89-6-16.24,33.32-4.28,89.72,13,89.25,6.61-.18,9.17.47,16.86-20,0,29.06-12.82,55.55,13.9,55.25,28.24-.33,26.06-35.94,20.29-56.1-3.84-13.42-27.35-30.76-10.26-57.25-8.55,21.36,14.41,38.06,20.52,49.56,5.67,10.72,8.15,30.95,6,41.87C786.73,451.35,775.63,482.12,712.39,480.41Z"/><path class="cls-10" d="M641.46,406.75c6,41,67.52,36.75,64.09-10.25,7.69,29.05,19.5,25.75,27.35,15.38-11.11,54.68,55.12,45.6,52.12,0,8.31,39.86-22.21,65.79-70.92,65.79C685.9,477.67,639.76,471.69,641.46,406.75Z"/><path class="cls-11" d="M999,413.57c-6,41-67.5,36.75-64.08-10.24-7.69,29.05-21.16,21.69-29,11.31,2.73,13.45,4.41,30.48-15.9,41.07,1.78,11,19.44,13.3,22.25,23.22a26.82,26.82,0,0,1,.87,4.72,109.6,109.6,0,0,0,13.23.86C954.59,484.51,1000.73,478.53,999,413.57Z"/><path class="cls-12" d="M1031.83,438.85c-22.81-3.17-18.12-47.63-10-61.6-5.7,7-7.54,13.81-8.62,22.61-1,8.48-5.22,16.55-15.38,2.41,9.72,14.14,6.84,23.18,6.63,31.8-.24,9.86-5.3,24.29-19.43,24.74,11.32,10.24,63.15,10.6,67-27.85C1045.15,439.86,1038.5,439.78,1031.83,438.85Z"/><path class="cls-13" d="M520.66,372.81c10.74,17.14,11.79,28.9,5.44,44.09-4,9.54-12.73,10.23-20.33-.38-6.31-8.82,0-22.71,2-31.91,5.5-25.46,23-51.54-16.11-78.14,4,6.17,7.56,15.52,8.26,22.5,1.38,13.82-10.58,14.34-19,12.11-14.35-3.78-12.4-27.67-4.39-41.47C463.41,311,460.82,323,463,334.26c2.83,14.7,26.37,36,19.24,49-10.83,19.83-22.63-2.39-15.7-24.65-3.93,6.47-9.86,20.48-8.91,27.67.87,6.54,11.9,20.38,2.49,29.8-14.29,14.28-29.72,4.9-31.46-14.33-1.6-17.65,15.43-34.63,20.55-50.8,6.69-21.09,11.09-34.83-15.1-52,16.54,9.78,3.72,32.48-13.11,24.22-15.13-7.41-9.13-27.64,3.11-34.48-24.12,6.2-35.59,23.16-21.5,55.1,3.7,8.41,17.47,47.85-10.35,52.27-19.13,3-81.26-90.54-37.54-103.35-49.46,11.49-45.18,36.38-43.28,59.62,1.76,21.65,45.93,72.87,2.09,72.87-21.67,0-11.57-35.43-14.86-54.06-3.57-20.3-9.42-25.16-25.89-37.67,9.83,13.69,5.49,31.24,1.11,44.4-.92,2.75-1.91,5.69-2.9,8.72-11-25-30.07-51.39-22.12-78.83-18.81,21.36-20.66,46.47-12.83,64.08,5.25,11.8,31.62,62.39-2.56,62.39-31.62,0,13.68-38.46-23.82-68.23,4.44,7.57,10.15,32.07-1.89,32.07-26.29,0-16.9-47.3-13.15-55.81,14.08-31.94,2.61-48.91-21.5-55.1,12.24,6.84,18.23,27.07,3.1,34.49-16.82,8.25-29.64-14.45-13.1-24.23-26.2,17.18-21.8,30.92-15.11,52,5.13,16.17,22.15,33.15,20.55,50.8-1.75,19.24-24.09,25.84-34.89,8.77-14.52-22.92,27.73-65.22-32.64-80.52,23.07,11.11,10,32.29,4.25,49.32q-.8,2.34-1.5,4.68c-16.2-19.29-43.56-45.41-18.06-77.81-26.36,8.5-36.83,48-32.34,67.57,2.62,11.46,37.78,60,0,60-18.69,0-10-26.68-12.81-42.76C37.47,372,32.42,367.78,18.22,357c8.48,11.81,4.73,27,.94,38.32-7.2,21.61-11.1,42.7,6.4,62.59,8.05,9.14,20,12.21,32.36,12A95.85,95.85,0,0,0,89.59,467c9.38-2.33,16.42-5.86,21.54-10.31.62,1,1.2,2,1.87,3,16.51,25,54.65,25.68,74.33,25.82,36.68.28,64.63-10.95,79.51-29.81a39.24,39.24,0,0,0,5.43,8.09c9.32,10.6,32.13.78,46.52.57,12,1,24.2-.27,36.7-3.38a74.64,74.64,0,0,0,14.76-5.24A61.58,61.58,0,0,0,372.37,475c.72,2.54,19.27,8.88,19.24,11.18a162.52,162.52,0,0,0,18.27.89c18.14-.14,51.95-.78,70.06-20.48a20,20,0,0,1-2.07-8.51,59.65,59.65,0,0,0,16.39,3.37c28.31,2.22,39.72,7.13,49.46-12.36C553.82,428.91,534.82,387.5,520.66,372.81Z"/><path class="cls-14" d="M13.25,349.49l.14.11-.09-.14C12.94,349.13,12.92,349.13,13.25,349.49Z"/><path class="cls-15" d="M42.08,466.7C18.86,457,18.8,441,21.64,422.6c1.92-12.49,14.66-28.85,8.51-47.77,15.61,18-6.62,66.69,24.6,66.69,32.36,0,21.78-34.14,16-50.39-5.5-15.5-12.24-27.18-4.68-44.87-.94,30.93,61.23,58.76,45.41,99C101.1,471.79,57.81,473.29,42.08,466.7Z"/><path class="cls-16" d="M29.21,415c3.78,49.19,54.86,43.53,54.86,2.85,0-9.41-7.57-21.76-8.52-42.57,5.68,21.76,27.37,36.2,32.17,53,4.44,15.56-7.82,34.22-34,37.84C46.23,469.9,20.69,461.38,29.21,415Z"/><path class="cls-17" d="M267,324.82l.17.14-.11-.17Q266.45,324.22,267,324.82Z"/><path class="cls-18" d="M533.83,409.75c-.91,9.64-4.27,20.47-14.85,23.12-26.35,6.59-22.12-28.23-16.78-42.14,6.85-17.87,8.35-33.47,5.67-52.47-.57,12.95-21.27,26-28.6,10.72,2,5.27,5.12,9.33,7.82,14.15,5.19,9.27,6.19,20.19-.34,29.43-5.3,7.51-19.43,11-24.29-9.71,2.65,20.31,8.63,25.06,4.42,34.89-6.62,15.45-57.41,20.75-42.93-30.31,4.72-16.63,23.19-39.25,19.78-56.34-7.69,13.68-20.57,18.63-35.89-6,10.46,34.77,12.9,76.53-11.18,80.26-19,2.95-69.45-42.85-63.5-90.47-11.65,5.57-16.16,38.27-2.55,57.83,11.4,16.39,22,58.73-15.5,58.73-36.17,0-10.42-56.45-28.5-77.27,7.12,21.92-7.64,40.89-9.86,55.36-3.29,21.37-3.23,39.8,23.68,51.09,15.19,6.37,101.1,21.85,106.56,21.7,29.07-.78,53.2-4,66.4-20,27.39,0,44.52.31,54.52-4.41C547.53,448.61,540.11,423,533.83,409.75Z"/><path class="cls-19" d="M285.52,400.77c4.38,57,63.57,50.42,63.57,3.29,0-10.9-8.78-25.21-9.87-49.32,6.58,25.21,31.71,41.94,37.27,61.38,5.15,18-9.06,39.65-39.46,43.85C305.24,464.35,275.65,454.48,285.52,400.77Z"/><path class="cls-20" d="M190.75,480.41c-45.43-1.22-78.89-8.21-77.25-61.22.4-13.1,3.65-25.29,8.71-37.34.34-.3.34-.29,0,0-13.49,60.64,74.42,64.21,51.55,3.64-6.11-16.19-23.2-39.26-19.77-56.35,7.68,13.67,21.84,18,35.88-6-16.23,33.32-4.27,89.72,13,89.25,6.62-.18,9.18.47,16.87-20,0,29.06-12.82,55.55,13.9,55.25,28.24-.33,26.05-35.94,20.28-56.1-3.84-13.42-27.34-30.76-10.26-57.25-8.54,21.36,14.42,38.06,20.52,49.56,5.68,10.72,8.16,30.95,6,41.87C265.09,451.35,254,482.12,190.75,480.41Z"/><path class="cls-21" d="M119.82,406.75c6,41,67.51,36.75,64.09-10.25,7.69,29.05,19.5,25.75,27.34,15.38-11.1,54.68,55.13,45.6,52.13,0,8.3,39.86-22.21,65.79-70.93,65.79C164.25,477.67,118.11,471.69,119.82,406.75Z"/><path class="cls-22" d="M477.38,413.57c-6,41-67.5,36.75-64.09-10.24-7.68,29.05-21.15,21.69-29,11.31,2.73,13.45,4.41,30.48-15.9,41.07,1.78,11,19.44,13.3,22.25,23.22a26.77,26.77,0,0,1,.86,4.72,109.9,109.9,0,0,0,13.24.86C433,484.51,479.09,478.53,477.38,413.57Z"/><path class="cls-23" d="M510.19,438.85c-22.82-3.17-18.12-47.63-10-61.6-5.7,7-7.55,13.81-8.62,22.61-1,8.48-5.22,16.55-15.38,2.41,9.72,14.14,6.84,23.18,6.63,31.8-.24,9.86-5.3,24.29-19.43,24.74,11.32,10.24,63.15,10.6,67-27.85C523.5,439.86,516.86,439.78,510.19,438.85Z"/><path class="cls-24" d="M68.67,774.24a27.48,27.48,0,0,1-15.23-4.16c-2.35-1.56-6.29-4.92-6.29-10.05V491.56c0-5.13,3.94-8.49,6.31-10.07a27.54,27.54,0,0,1,15.21-4.14h950.18a27.5,27.5,0,0,1,15.22,4.16c2.35,1.56,6.3,4.92,6.3,10.05V760c0,5.13-3.94,8.49-6.3,10.05a27.5,27.5,0,0,1-15.22,4.16Z"/><path class="cls-25" d="M1018.85,477.35a27.5,27.5,0,0,1,15.22,4.16c2.35,1.56,6.3,4.92,6.3,10.05V760c0,5.13-3.94,8.49-6.3,10.05a27.5,27.5,0,0,1-15.22,4.16H68.67a27.48,27.48,0,0,1-15.23-4.16c-2.35-1.56-6.29-4.92-6.29-10.05V491.56c0-5.13,3.94-8.49,6.31-10.07a27.54,27.54,0,0,1,15.21-4.14h950.18m0-25H68.67a53,53,0,0,0-29,8.27c-11.19,7.44-17.56,18.7-17.56,30.94V760c0,12.26,6.37,23.51,17.46,30.88a53.2,53.2,0,0,0,29.06,8.33h950.18a52.13,52.13,0,0,0,29-8.29c11.15-7.36,17.54-18.63,17.54-30.92V491.56c0-12.27-6.38-23.52-17.49-30.89a52.14,52.14,0,0,0-29-8.32Z"/><path class="cls-26" d="M103.53,677.93l-3.4,54.17H84.45l5-76.1,11-139h21.28l11,138.83,5.05,76.32H122.06l-3.4-54.17Zm14.26-15.35L111.1,555.44l-6.69,107.14Z"/><path class="cls-27" d="M178.87,587.79V537.46c0-4.83-2.24-7.24-6.69-7.24h-.11q-6.69,0-6.69,7.24V711.59q0,7.35,6.69,7.35t6.8-7.35V661.37h15.57v50.22q0,22.59-22.37,22.7t-22.26-22.7V537.46q0-22.59,22.26-22.59t22.37,22.59v50.33Z"/><path class="cls-28" d="M254.42,711.59q0,22.59-22.37,22.7t-22.26-22.7V537.46q0-22.59,22.26-22.59t22.37,22.59ZM238.85,537.46q0-7.25-6.69-7.24h-.11q-6.69,0-6.69,7.24V711.59q0,7.35,6.69,7.35t6.8-7.35Z"/><path class="cls-29" d="M299.16,732.1l-13.27-168v168h-15V517H292l12.61,181.26L317.25,517h21.17V732.1h-15v-168l-13.27,168Z"/><path class="cls-30" d="M356,517h22.59q20.73,0,20.73,22.59v69.85q0,16.68-14.92,21.49a36.67,36.67,0,0,1-10.31,1.1h-2.52V732.1H356Zm15.57,15.24v84.44H375a15.4,15.4,0,0,0,4.5-.44c2.78-1.1,4.16-3.36,4.16-6.8V539.54c0-4.89-2.23-7.35-6.69-7.35Z"/><path class="cls-31" d="M419.34,677.93l-3.4,54.17H400.26l5.05-76.1,11-139h21.28l11,138.83,5.05,76.32H437.87l-3.4-54.17Zm14.26-15.35-6.69-107.14-6.69,107.14Z"/><path class="cls-32" d="M495.33,517h14.92V732.1h-11L480,600.4V732.1H465.62V517H476.7l18.63,131.59Z"/><path class="cls-33" d="M556.85,616.74V517h15.57V732.1H556.85v-100H543.36v100H527.79V517h15.57v99.79Z"/><path class="cls-34" d="M603.57,677.93l-3.4,54.17H584.48l5-76.1,11-139h21.28l11,138.83,5,76.32H622.1l-3.4-54.17Zm14.25-15.35-6.69-107.14-6.69,107.14Z"/><path class="cls-35" d="M678.13,732.1l-13.27-168v168h-15V517H671l12.61,181.26L696.23,517h21.16V732.1h-15v-168l-13.27,168Z"/><path class="cls-36" d="M734.93,517h40.25v15.24H750.5v84.55h21.28v15.35H750.5v84.66h24.68V732.1H734.93Z"/><path class="cls-37" d="M818.05,517H833V732.1H822L802.7,600.4V732.1H788.34V517h11.07l18.64,131.59Z"/><path class="cls-38" d="M889.66,517v15.24H875.07V732.1H859.61V532.19H845V517Z"/><path class="cls-39" d="M945.26,711.59q0,22.59-22.38,22.7t-22.26-22.7V537.46q0-22.59,22.26-22.59t22.38,22.59ZM929.68,537.46q0-7.25-6.69-7.24h-.11q-6.69,0-6.69,7.24V711.59q0,7.35,6.69,7.35t6.8-7.35Z"/><path class="cls-40" d="M976.17,661.37v50.22q0,7.35,6.8,7.35t6.69-7.35V646.68q0-7.8-14.47-18.21t-14.58-25.22v-65.9q0-22.59,22.25-22.59t22.38,22.59v50.44H989.66V537.35q0-7.25-6.69-7.24h-.11q-6.69,0-6.69,7.24v65.57q0,7.23,14.48,17.66t14.59,24.78v66.23q0,22.71-22.27,22.7t-22.36-22.7V661.37Z"/></g></g></svg>