<svg xmlns="http://www.w3.org/2000/svg" xmlns:xlink="http://www.w3.org/1999/xlink" viewBox="0 0 1080 1080"><defs><style>.cls-1{isolation:isolate;}.cls-2{fill:url(#linear-gradient);}.cls-3{fill:url(#linear-gradient-2);}.cls-4,.cls-7{mix-blend-mode:screen;}.cls-4{fill:url(#linear-gradient-3);}.cls-5{fill:url(#linear-gradient-4);}.cls-6{fill:url(#linear-gradient-5);}.cls-7{fill:url(#linear-gradient-6);}.cls-8{fill:url(#linear-gradient-7);}.cls-9{fill:url(#linear-gradient-8);}.cls-10{fill:url(#linear-gradient-9);}.cls-11{fill:url(#linear-gradient-10);}.cls-12{fill:url(#linear-gradient-11);}</style><linearGradient id="linear-gradient" x1="540.05" y1="260.44" x2="540.05" y2="492.17" gradientUnits="userSpaceOnUse"><stop offset="0" stop-color="#ff1f00"/><stop offset="1" stop-color="#fe0"/></linearGradient><linearGradient id="linear-gradient-2" x1="464.88" y1="226.34" x2="464.88" y2="481.59" xlink:href="#linear-gradient"/><linearGradient id="linear-gradient-3" x1="465.29" y1="320.15" x2="465.29" y2="504.88" gradientUnits="userSpaceOnUse"><stop offset="0"/><stop offset="1" stop-color="#ff8400"/></linearGradient><linearGradient id="linear-gradient-4" x1="390.87" y1="258.92" x2="400.4" y2="318.96" xlink:href="#linear-gradient"/><linearGradient id="linear-gradient-5" x1="667.75" y1="226.33" x2="667.75" y2="481.59" xlink:href="#linear-gradient"/><linearGradient id="linear-gradient-6" x1="668.92" y1="318.5" x2="668.92" y2="507.49" xlink:href="#linear-gradient-3"/><linearGradient id="linear-gradient-7" x1="628.9" y1="267.35" x2="644.51" y2="365.61" xlink:href="#linear-gradient"/><linearGradient id="linear-gradient-8" x1="628.46" y1="251.79" x2="635.91" y2="347.28" xlink:href="#linear-gradient"/><linearGradient id="linear-gradient-9" x1="543.97" y1="839.76" x2="543.97" y2="469.86" gradientUnits="userSpaceOnUse"><stop offset="0"/><stop offset="0.16" stop-color="#0c0000"/><stop offset="0.46" stop-color="#2c0000"/><stop offset="0.85" stop-color="#5f0000"/><stop offset="1" stop-color="#750000"/></linearGradient><linearGradient id="linear-gradient-10" x1="543.97" y1="873.85" x2="543.97" y2="486.84" gradientUnits="userSpaceOnUse"><stop offset="0" stop-color="#ff1f00"/><stop offset="0.22" stop-color="#ff5700"/><stop offset="0.49" stop-color="#ff9700"/><stop offset="0.72" stop-color="#ffc600"/><stop offset="0.9" stop-color="#ffe300"/><stop offset="1" stop-color="#fe0"/></linearGradient><linearGradient id="linear-gradient-11" x1="540.5" y1="784.29" x2="540.5" y2="576.28" gradientUnits="userSpaceOnUse"><stop offset="0" stop-color="#fe0"/><stop offset="0.1" stop-color="#ffe600"/><stop offset="0.25" stop-color="#ffd100"/><stop offset="0.44" stop-color="#ffae00"/><stop offset="0.65" stop-color="#ff7e00"/><stop offset="0.88" stop-color="#ff4000"/><stop offset="1" stop-color="#ff1f00"/></linearGradient></defs><g class="cls-1"><g id="Camada_1" data-name="Camada 1"><path class="cls-2" d="M725.38,263.84c-44.36,1.89-89.39,87-78.59,156-5.41-34.2-28.28-60.43-58.21-75,15.06,17.19,13.25,35.82,7.14,56.1-7.53-57.58-34.44-110.49-34.44-110.49,12.39,61.93-22.52,84.47-22.52,84.47,3.38-150.91-125-170.07-125-170.07,83.33,37.17,51.8,138.54,51.8,138.54,1.12-37.17-16.89-94.61-57.43-107,34.53,18,24,54.06-4.51,106.62-14.06,25.9-25.53,49.54-22.52,81.08-12-34.54-17.27-52.18,2.25-89.72C314.65,394.06,274.11,545,461.06,545c63.13,0,242.1,9.19,280.53-36.32C796.14,444,652.49,309,725.38,263.84Z"/><path class="cls-3" d="M471.2,538.21c-47.39,2.88-159.92,0-109.25-154.28-2.25,42.79,14.65,40.54,32.67,79.21-9-112.61,49.54-88.59,45.79-168.18,21,30,23.72,75.72,15.77,106.62,27.94-23.95,61.56-108.1,25.68-149.63,50.88,46,50.88,119.6,35.88,175.15,31.53-3,54-34.54,57.06-63.06C603.33,500.67,520.74,535.21,471.2,538.21Z"/><path class="cls-4" d="M464.53,510.83c-54.81,0-80.33-16.51-91.59-66.81,21,32.29,37.61,37.05,51.06,39-34.54-34.53-4.51-98.35,15-126.12-1.14,21.43-12,57.81,15.76,87.83C451,391.46,512.58,384,505.07,308.14c17.28,65.3,5.83,116.62-9.75,138.89,21.76-3,45.05-9.77,62.31-33C543.37,493.57,499.82,510.83,464.53,510.83Z"/><path class="cls-5" d="M389.36,319.37c12.75-11.26,21.68-20.05,18.77-38.48-3.39-21.41-26.47-24.22-19.72-43.92-19.14,21.4-9.32,34.86,1.69,49.55C396.87,295.53,393.49,311.48,389.36,319.37Z"/><path class="cls-6" d="M598.78,515.25c-17.59-53.72,34.81-87.6,13.2-130.8,23,11.18,35.41,39.6,39,73.21-3.6-64.82,16.79-114.62,49.19-130.81-30.6,57.6,69.94,139.46,31.21,186.6C703.78,547,610.18,550,598.78,515.25Z"/><path class="cls-7" d="M612.59,512.45c-12.71-38.51,26.89-60.23,11.4-91.21,18.6,10.2,28.79,24.6,33.6,57-3-36-7.8-85.2,25.2-133.2-17.4,61.81,65.4,114,40.2,160.8C707.45,534.71,621.61,539.79,612.59,512.45Z"/><path class="cls-8" d="M639.43,364.21c-35.55-30.16-39.3-57.07-36.57-74,1.62-10,6.46-17.06,13.11-24.47-7.73,10.61,1.51,23.72,5.39,33.64-5.86-11.2,5.84-25.91,11-35.6,6.91-12.86,6.2-20.22,2.58-33.92,20.69,13.88,32.06,35.65,25.17,60.61C655,309,634,326.85,639.43,364.21Z"/><path class="cls-9" d="M612.46,295.5c1.77,11.1,8.53,19.1,15.21,22.27-7.76-23.34,7.92-30.92,18.08-49,2.42-4.32,4.14-9.71,3.58-14.67,2.37,14.7,5.84,18.31,3.6,33.16-2.27,15.09-24.14,46.8-18,65.25C625.93,344.85,601.63,319.2,612.46,295.5Z"/><path class="cls-10" d="M505.33,845H393.4a15.18,15.18,0,0,1-10-3.56,11.34,11.34,0,0,1-4.13-8.56v-305a11.34,11.34,0,0,1,4.13-8.57,15.24,15.24,0,0,1,10-3.56H694.52a15.22,15.22,0,0,1,10,3.56,11.34,11.34,0,0,1,4.13,8.57v305a11.34,11.34,0,0,1-4.13,8.56,15.17,15.17,0,0,1-10,3.56H505.33Z"/><path class="cls-11" d="M694.52,515.69a15.22,15.22,0,0,1,10,3.56,11.34,11.34,0,0,1,4.13,8.57v305a11.34,11.34,0,0,1-4.13,8.56,15.17,15.17,0,0,1-10,3.56H393.4a15.18,15.18,0,0,1-10-3.56,11.34,11.34,0,0,1-4.13-8.56v-305a11.34,11.34,0,0,1,4.13-8.57,15.24,15.24,0,0,1,10-3.56H694.52m0-28.85H393.4a44.19,44.19,0,0,0-28.7,10.45,40.25,40.25,0,0,0-14.27,30.53v305a40.18,40.18,0,0,0,14.19,30.45,44.15,44.15,0,0,0,28.78,10.53H694.52a44.12,44.12,0,0,0,28.79-10.53,40.18,40.18,0,0,0,14.19-30.45v-305a40.22,40.22,0,0,0-14.2-30.47,44.23,44.23,0,0,0-28.78-10.51Z"/><path class="cls-12" d="M559.13,646.84v-49.5h11v45.4c0,2.38.57,4,2.93,4,2.15,0,5.14-2.75,6.48-4.44V597.35h11v59.21h-11V650c-4.77,5.66-9.4,7.39-12.73,7.39C560.92,657.41,559.13,652.68,559.13,646.84Zm-41.3-34.07c0-9.51,6.43-15.92,16.13-15.92a15.45,15.45,0,0,1,15.82,15.92v29c0,10-7,15.86-15.82,15.86-10.67,0-16.13-5.43-16.13-15.86Zm11.33,28.52c0,3.11,1.76,5.6,4.8,5.6s4.61-2.38,4.61-5.6V613.74c0-3.32-1.45-5.65-4.82-5.65-3.09,0-4.59,2.41-4.59,5.65Zm-37.6,15.27H504V624l14.43-47.71H505.8l-7.95,32.09-8.55-32.09H476.82L491.56,624Zm139.06,38.72v63.77a25.23,25.23,0,0,1-25.24,25.24H475.61a25.23,25.23,0,0,1-25.24-25.24V695.28A25.24,25.24,0,0,1,475.61,670H605.38A25.24,25.24,0,0,1,630.62,695.28ZM492.91,700h12.21v-11.1H468.88V700H481.1V765.4h11.81Zm42,9H524.42v42.8c-1.27,1.6-4.13,4.22-6.17,4.22-2.23,0-2.78-1.53-2.78-3.8V709H505v47.13c0,11.45,7.76,11.51,13.41,8.28a23.38,23.38,0,0,0,6-5.24v6.22h10.49Zm40.36,13.41c0-7.64-2.55-14.13-10.23-14.13-3.74,0-7,2.38-9.32,5.27V688.94H545.13V765.4h10.59v-4.33c2.92,3.64,6.12,5,10,5,7,0,9.59-5.42,9.59-12.39ZM614,724.17c0-10.2-4.86-16.59-14.92-16.59-9.46,0-15.92,6.79-15.92,16.59v25.31c0,10.15,5.11,17.45,15.13,17.45,11,0,15.71-6.59,15.71-17.45v-4.24H603.23v3.92c0,4.91-.26,7.89-4.68,7.89-4.23,0-4.58-3.66-4.58-7.89V738.52h20Zm-15.37-6.72c-3.88,0-4.68,2.74-4.68,6.61v5.71h9.26v-5.71C603.23,720.24,602.41,717.45,598.65,717.45Zm-40.77.35a7.88,7.88,0,0,0-2.16,1.72v35.14a9,9,0,0,0,2.48,2c1.71.86,4.21.93,5.36-.58a6.47,6.47,0,0,0,.92-3.89V723.06a7.12,7.12,0,0,0-1.13-4.33A4.34,4.34,0,0,0,557.88,717.8Z"/></g></g></svg>