<svg xmlns="http://www.w3.org/2000/svg" xmlns:xlink="http://www.w3.org/1999/xlink" viewBox="0 0 1080 1080"><defs><style>.cls-1{isolation:isolate;}.cls-2{fill:url(#linear-gradient);}.cls-3{fill:url(#linear-gradient-2);}.cls-4{fill:url(#linear-gradient-3);}.cls-5{fill:url(#linear-gradient-4);}.cls-11,.cls-6{mix-blend-mode:screen;}.cls-6{fill:url(#linear-gradient-5);}.cls-7{fill:url(#linear-gradient-6);}.cls-8{fill:url(#radial-gradient);}.cls-9{fill:url(#linear-gradient-7);}.cls-10{fill:url(#linear-gradient-8);}.cls-11{fill:url(#linear-gradient-9);}.cls-12{fill-rule:evenodd;fill:url(#linear-gradient-10);}</style><linearGradient id="linear-gradient" x1="571.58" y1="291.35" x2="571.65" y2="291.79" gradientUnits="userSpaceOnUse"><stop offset="0" stop-color="#ff1f00"/><stop offset="1" stop-color="#fe0"/></linearGradient><linearGradient id="linear-gradient-2" x1="550.07" y1="318.96" x2="550.07" y2="512.65" xlink:href="#linear-gradient"/><linearGradient id="linear-gradient-3" x1="548.98" y1="268.37" x2="548.98" y2="510.86" xlink:href="#linear-gradient"/><linearGradient id="linear-gradient-4" x1="661.25" y1="428.97" x2="661.25" y2="430.08" gradientUnits="userSpaceOnUse"><stop offset="0"/><stop offset="1" stop-color="#ff8400"/></linearGradient><linearGradient id="linear-gradient-5" x1="553.48" y1="335.53" x2="553.48" y2="424.53" xlink:href="#linear-gradient-4"/><linearGradient id="linear-gradient-6" x1="549.8" y1="493.39" x2="549.8" y2="867.91" gradientUnits="userSpaceOnUse"><stop offset="0" stop-color="#fe0"/><stop offset="0.1" stop-color="#ffe600"/><stop offset="0.25" stop-color="#ffd100"/><stop offset="0.44" stop-color="#ffae00"/><stop offset="0.65" stop-color="#ff7e00"/><stop offset="0.88" stop-color="#ff4000"/><stop offset="1" stop-color="#ff1f00"/></linearGradient><radialGradient id="radial-gradient" cx="549.8" cy="657.35" r="181.41" gradientTransform="translate(1063.83 -28.33) rotate(76.77)" gradientUnits="userSpaceOnUse"><stop offset="0"/><stop offset="0.28" stop-color="#030000"/><stop offset="0.47" stop-color="#0c0000"/><stop offset="0.63" stop-color="#1b0000"/><stop offset="0.77" stop-color="#300000"/><stop offset="0.91" stop-color="#4b0000"/><stop offset="1" stop-color="#630000"/></radialGradient><linearGradient id="linear-gradient-7" x1="642.59" y1="249.96" x2="642.59" y2="334.5" xlink:href="#linear-gradient"/><linearGradient id="linear-gradient-8" x1="645.1" y1="247.08" x2="645.1" y2="319.02" xlink:href="#linear-gradient"/><linearGradient id="linear-gradient-9" x1="643.73" y1="287.46" x2="643.73" y2="327.65" xlink:href="#linear-gradient-4"/><linearGradient id="linear-gradient-10" x1="553.48" y1="771.75" x2="553.48" y2="542.96" xlink:href="#linear-gradient-6"/></defs><g class="cls-1"><g id="Camada_1" data-name="Camada 1"><path class="cls-2" d="M571.74,291.66l.1.09a.38.38,0,0,1-.06-.13C571.24,291.08,571.23,291.09,571.74,291.66Z"/><path class="cls-3" d="M708.66,532.3a113.81,113.81,0,0,0-15.86-8.5c-33.26-15.25-85-25-143.24-25-58.41,0-110.37,9.85-143.63,25.19a122.18,122.18,0,0,0-15.16,8.15C368,465.88,418,431.22,440.89,368.61c5.57-15.17,10.61-38.13,4.13-53.29,17.65,25.16,28.35,50.74,27.86,80,2.33-45.79,39.05-93.81,29.19-140.52-2.24-10.38-5.92-18.58-12.75-25.72,36.19,33.3,84.43,95.74,87.24,142.71,9.28-26.86,18.35-53.23,5.21-78.38,30.46,23.92,37.22,41.86,46,88.07,4.21-28.66,21.91-50.75,47.2-62.05C618.49,360.77,744.54,432.05,708.66,532.3Z"/><path class="cls-4" d="M692.8,523.8a214.45,214.45,0,0,0-32.16-11.48c-30.72-8.5-69.24-13.53-111.08-13.53-36.1,0-69.8,3.76-98.06,10.25-17.44,4-32.86,9.06-45.57,14.94-13.36-32.16,7.76-91.14,21.61-111.86,8.06-12,18-22.92,26.42-34.67-2.49,21.52,9.86,56.49,29.84,68-17.44-44.48,28.38-85.54,29.92-128.65,17,42.42,66.21,60.33,77.78,108.88,10.65-13.36,10.12-34.61,6.83-50.47,13.63,21.77,29.4,38.2,47,55.91.62-16,3.59-36.9-1.31-49.34C679.49,420.48,706.12,480.38,692.8,523.8Z"/><path class="cls-5" d="M661.29,430v.26a.5.5,0,0,0-.08-.26C661.26,428.85,661.29,428.85,661.29,430Z"/><path class="cls-6" d="M656.27,494.88c-30.71-8.5-69.23-13.54-111.06-13.54-36.11,0-69.81,3.77-98.07,10.26-10.78-23.54-8.85-61-4.9-77.65,3.5,28.79,33.87,48.68,61.16,52.23-25.76-36.54,7.45-82,17.66-117.21,22.17,33.26,51.26,58,67.52,95.74,10.61-10.08,13.5-26.42,14.29-40.62,12.93,13.1,26.63,33.3,32.38,50.83,14.2-8.11,23-25.54,21.68-42.15C672.76,449.49,670.34,476.26,656.27,494.88Z"/><path class="cls-7" d="M755.63,657.35c0,113.68-92.16,205.82-205.83,205.82S344,771,344,657.35,436.12,451.53,549.8,451.53,755.63,543.68,755.63,657.35Z"/><circle class="cls-8" cx="549.8" cy="657.35" r="181.41" transform="translate(-215.96 1042.07) rotate(-76.77)"/><path class="cls-9" d="M641.56,332.62c26.87-30.4,25.1-69.41-7.39-86.4C645.5,276.75,602.79,299.39,641.56,332.62Z"/><path class="cls-10" d="M641.16,330.62c-17.92-17.91,1.13-56,1.88-67.78C659.28,271.7,663.78,305.64,641.16,330.62Z"/><path class="cls-11" d="M641.05,330.17c-7.79-11.41-4.68-23.84-.23-35.58,1.45-3.84,3.06-10.13,1.65-15.79,11.08,12.49,11,28.89,3.15,42.48a47.85,47.85,0,0,0-4.33,9.36Z"/><path class="cls-12" d="M667.79,651.57C666.27,591.32,616.64,543,555.55,543,495.2,543,446,590.22,443.37,649.52c-.05,1.63-.11,3.26-.11,4.89A110.56,110.56,0,0,0,459.35,712l-20.24,59.78L501.3,752a112.47,112.47,0,0,0,54.25,13.88c62,0,112.29-49.89,112.29-111.45C667.84,653.46,667.84,652.51,667.79,651.57ZM555.55,748.09a94,94,0,0,1-51.94-15.51l-36.27,11.56,11.78-34.8a92.67,92.67,0,0,1-18-54.93,86,86,0,0,1,.47-9.1c4.63-47.42,45-84.58,93.94-84.58,49.58,0,90.32,38.11,94.1,86.37.21,2.42.32,4.84.32,7.31C650,706.08,607.6,748.09,555.55,748.09Zm56.73-68c.68,1.16.68,6.63-1.64,13s-13.51,12.56-18.55,13-5.05,4.1-33.07-6.78S513.39,659.77,512,658a62.09,62.09,0,0,1-9.83-18.92,34.76,34.76,0,0,1-1.42-9.31c0-13.46,7.1-20.08,9.62-22.81a10.19,10.19,0,0,1,7.37-3.42c1.83,0,3.67.26,5.25.26s3.94-.94,6.2,4.52,7.84,18.93,8.52,20.3a4.89,4.89,0,0,1,.21,4.78,31.17,31.17,0,0,1-1.73,3.26c-.32.42-.63.84-1,1.31-1.42,1.58-2.89,3.53-4.16,4.79s-2.78,2.84-1.2,5.57a81.58,81.58,0,0,0,15.29,18.87c10.52,9.36,19.4,12.2,22.14,13.57s4.36,1.15,6-.69,6.88-7.94,8.73-10.67,3.67-2.31,6.2-1.37,16,7.52,18.82,8.89S611.59,679,612.28,680.06Z"/></g></g></svg>