<svg xmlns="http://www.w3.org/2000/svg" xmlns:xlink="http://www.w3.org/1999/xlink" viewBox="0 0 1080 1080"><defs><style>.cls-1{isolation:isolate;}.cls-2{fill:url(#linear-gradient);}.cls-3{fill:url(#linear-gradient-2);}.cls-4{fill:url(#linear-gradient-3);}.cls-10,.cls-11,.cls-12,.cls-5,.cls-8{mix-blend-mode:screen;}.cls-5{fill:url(#linear-gradient-4);}.cls-6{fill:url(#linear-gradient-5);}.cls-7{fill:url(#linear-gradient-6);}.cls-8{fill:url(#linear-gradient-7);}.cls-9{fill:url(#linear-gradient-8);}.cls-10{fill:url(#linear-gradient-9);}.cls-11{fill:url(#linear-gradient-10);}.cls-12{fill:url(#linear-gradient-11);}.cls-13{fill:url(#linear-gradient-12);}.cls-14{fill:url(#linear-gradient-13);}.cls-15{fill:url(#linear-gradient-14);}.cls-16{fill:url(#linear-gradient-15);}.cls-17{fill:url(#linear-gradient-16);}.cls-18{fill:url(#linear-gradient-17);}.cls-19{fill:url(#linear-gradient-18);}.cls-20{fill:url(#linear-gradient-19);}.cls-21{fill:url(#linear-gradient-20);}</style><linearGradient id="linear-gradient" x1="543.79" y1="322.9" x2="543.79" y2="450.64" gradientUnits="userSpaceOnUse"><stop offset="0" stop-color="#ff1f00"/><stop offset="1" stop-color="#fe0"/></linearGradient><linearGradient id="linear-gradient-2" x1="286.08" y1="346.29" x2="286.13" y2="346.6" xlink:href="#linear-gradient"/><linearGradient id="linear-gradient-3" x1="338.31" y1="304.81" x2="338.31" y2="441.25" xlink:href="#linear-gradient"/><linearGradient id="linear-gradient-4" x1="339.13" y1="382.07" x2="339.13" y2="444.54" gradientUnits="userSpaceOnUse"><stop offset="0"/><stop offset="1" stop-color="#ff8400"/></linearGradient><linearGradient id="linear-gradient-5" x1="531.35" y1="322.43" x2="531.41" y2="322.79" xlink:href="#linear-gradient"/><linearGradient id="linear-gradient-6" x1="667.61" y1="297.89" x2="667.61" y2="437.59" xlink:href="#linear-gradient"/><linearGradient id="linear-gradient-7" x1="592.83" y1="372.31" x2="592.83" y2="441.49" xlink:href="#linear-gradient-4"/><linearGradient id="linear-gradient-8" x1="459.13" y1="300.59" x2="459.13" y2="446.6" xlink:href="#linear-gradient"/><linearGradient id="linear-gradient-9" x1="459.16" y1="382.39" x2="459.16" y2="468.02" xlink:href="#linear-gradient-4"/><linearGradient id="linear-gradient-10" x1="2963.54" y1="372.31" x2="2963.54" y2="441.49" gradientTransform="matrix(-1, 0, 0, 1, 3645.63, 0)" xlink:href="#linear-gradient-4"/><linearGradient id="linear-gradient-11" x1="753.55" y1="404.72" x2="753.55" y2="456.75" xlink:href="#linear-gradient-4"/><linearGradient id="linear-gradient-12" x1="546.56" y1="759.12" x2="546.56" y2="443.51" gradientUnits="userSpaceOnUse"><stop offset="0"/><stop offset="0.16" stop-color="#0c0000"/><stop offset="0.46" stop-color="#2c0000"/><stop offset="0.85" stop-color="#5f0000"/><stop offset="1" stop-color="#750000"/></linearGradient><linearGradient id="linear-gradient-13" x1="546.56" y1="787.96" x2="546.56" y2="438.45" gradientUnits="userSpaceOnUse"><stop offset="0" stop-color="#ff1f00"/><stop offset="0.22" stop-color="#ff5700"/><stop offset="0.49" stop-color="#ff9700"/><stop offset="0.72" stop-color="#ffc600"/><stop offset="0.9" stop-color="#ffe300"/><stop offset="1" stop-color="#fe0"/></linearGradient><linearGradient id="linear-gradient-14" x1="384.11" y1="720.78" x2="384.11" y2="505.64" xlink:href="#linear-gradient-13"/><linearGradient id="linear-gradient-15" x1="443" y1="720.78" x2="443" y2="505.64" xlink:href="#linear-gradient-13"/><linearGradient id="linear-gradient-16" x1="498.59" y1="720.78" x2="498.59" y2="505.64" xlink:href="#linear-gradient-13"/><linearGradient id="linear-gradient-17" x1="545.69" y1="720.78" x2="545.69" y2="505.64" xlink:href="#linear-gradient-13"/><linearGradient id="linear-gradient-18" x1="593.89" y1="720.78" x2="593.89" y2="505.64" xlink:href="#linear-gradient-13"/><linearGradient id="linear-gradient-19" x1="653.81" y1="720.78" x2="653.81" y2="505.64" xlink:href="#linear-gradient-13"/><linearGradient id="linear-gradient-20" x1="713.74" y1="722.97" x2="713.74" y2="503.44" xlink:href="#linear-gradient-13"/></defs><g class="cls-1"><g id="Camada_1" data-name="Camada 1"><path class="cls-2" d="M776.57,369c10.38,16.56,11.39,27.92,5.26,42.61-3.85,9.22-12.31,9.88-19.65-.37-6.1-8.53,0-21.95,2-30.84,5.32-24.61,22.24-49.81-15.58-75.53,3.92,6,7.32,15,8,21.75,1.34,13.36-10.23,13.86-18.39,11.7-13.87-3.65-12-26.74-4.25-40.07-12.68,10.95-15.19,22.58-13.09,33.48,2.74,14.21,25.48,34.8,18.6,47.41-10.47,19.16-21.87-2.32-15.18-23.83-3.8,6.25-9.53,19.8-8.61,26.74.84,6.33,11.51,19.7,2.4,28.8-13.81,13.81-28.72,4.75-30.4-13.85-1.55-17.05,14.91-33.47,19.86-49.09,6.47-20.39,10.72-33.66-14.59-50.27,16,9.46,3.59,31.4-12.68,23.42-14.61-7.16-8.82-26.72,3-33.33-23.31,6-34.4,22.38-20.78,53.25,3.58,8.14,16.89,46.25-10,50.52-18.49,2.94-78.53-87.5-36.28-99.88-47.8,11.1-43.66,35.16-41.83,57.62,1.71,20.92,44.39,70.44,2,70.44-20.94,0-11.18-34.25-14.36-52.26-3.45-19.62-9.1-24.32-25-36.41,9.5,13.23,5.3,30.2,1.06,42.91-.88,2.67-1.84,5.5-2.79,8.44-10.59-24.16-29.06-49.67-21.39-76.2-18.17,20.65-20,44.92-12.39,61.94,5.07,11.4,30.56,60.3-2.48,60.3-30.56,0,13.22-37.17-23-66,4.29,7.32,9.81,31-1.83,31-25.4,0-16.34-45.71-12.71-53.94,13.61-30.87,2.53-47.26-20.78-53.25,11.83,6.61,17.62,26.17,3,33.34-16.26,8-28.65-14-12.66-23.43-25.33,16.61-21.08,29.89-14.6,50.27,4.95,15.63,21.41,32,19.86,49.09-1.69,18.6-23.29,25-33.73,8.48-14-22.15,26.8-63-31.55-77.82,22.3,10.74,9.7,31.21,4.11,47.66-.51,1.52-1,3-1.45,4.53-15.65-18.64-42.1-43.89-17.45-75.21-25.48,8.22-35.6,46.36-31.26,65.32,2.53,11.07,36.51,58,0,58-18.06,0-9.64-25.79-12.38-41.33-3-16.93-7.87-21-21.6-31.42,8.2,11.41,4.57,26.06.92,37-7,20.89-10.73,41.27,6.18,60.5,7.78,8.84,19.29,11.8,31.28,11.62A92.68,92.68,0,0,0,359.93,460c9.07-2.25,15.87-5.66,20.81-10,.6,1,1.17,1.94,1.81,2.91,16,24.16,52.83,24.83,71.85,25,35.45.26,62.46-10.59,76.85-28.82a37.66,37.66,0,0,0,5.24,7.82c9,10.25,31.06.75,45,.55a107.75,107.75,0,0,0,35.48-3.27,71.78,71.78,0,0,0,14.26-5.06,59.48,59.48,0,0,0,2,18.59c.7,2.46,18.63,8.59,18.6,10.81a156.57,156.57,0,0,0,17.65.86c17.54-.13,50.22-.75,67.72-19.79a19.46,19.46,0,0,1-2-8.23,57.6,57.6,0,0,0,15.84,3.26c27.37,2.14,38.39,6.89,47.81-11.94C808.62,423.23,790.26,383.21,776.57,369Z"/><path class="cls-3" d="M286.14,346.46l.14.11-.09-.14C285.84,346.11,285.82,346.12,286.14,346.46Z"/><path class="cls-4" d="M314,459.75c-22.45-9.42-22.5-24.8-19.76-42.62,1.86-12.07,14.17-27.89,8.23-46.18,15.09,17.38-6.4,64.46,23.77,64.46,31.28,0,21.06-33,15.49-48.69-5.32-15-11.83-26.28-4.53-43.37-.9,29.89,59.19,56.79,43.9,95.72C371.05,464.67,329.21,466.12,314,459.75Z"/><path class="cls-5" d="M301.57,409.81c3.65,47.54,53,42.06,53,2.74,0-9.09-7.31-21-8.23-41.14,5.49,21,26.45,35,31.09,51.2,4.3,15-7.55,33.07-32.91,36.57C318,462.84,293.34,454.61,301.57,409.81Z"/><path class="cls-6" d="M531.42,322.63l.17.13-.12-.17C531.07,322.23,531.05,322.24,531.42,322.63Z"/><path class="cls-7" d="M789.3,404.71c-.88,9.32-4.13,19.78-14.36,22.34-25.47,6.37-21.37-27.28-16.22-40.72,6.62-17.28,8.08-32.36,5.48-50.72-.54,12.52-20.55,25.16-27.64,10.36,1.9,5.09,5,9,7.57,13.68,5,9,6,19.51-.33,28.44-5.12,7.26-18.78,10.68-23.48-9.38,2.56,19.63,8.34,24.22,4.27,33.72-6.4,14.93-55.49,20.06-41.5-29.29,4.57-16.08,22.42-37.94,19.12-54.45-7.43,13.21-19.88,18-34.69-5.79,10.12,33.61,12.47,74-10.8,77.58-18.41,2.85-67.13-41.42-61.38-87.44-11.26,5.37-15.61,37-2.46,55.88,11,15.85,21.26,56.77-15,56.77-35,0-10.07-54.56-27.54-74.68,6.88,21.19-7.39,39.52-9.54,53.5-3.18,20.66-3.12,38.48,22.89,49.39,14.68,6.15,97.72,21.11,103,21,28.1-.76,51.43-3.84,64.19-19.37,26.47,0,43,.3,52.69-4.27C802.54,442.27,795.37,417.53,789.3,404.71Z"/><path class="cls-8" d="M549.3,396c4.23,55.09,61.44,48.73,61.44,3.18,0-10.53-8.48-24.36-9.54-47.67,6.36,24.37,30.65,40.54,36,59.33,5,17.42-8.75,38.32-38.13,42.37C568.36,457.48,539.76,447.94,549.3,396Z"/><path class="cls-9" d="M457.7,473c-43.91-1.18-76.25-7.93-74.66-59.17.39-12.66,3.53-24.44,8.42-36.09.32-.29.33-.28,0,0-13,58.61,71.92,62.06,49.82,3.52-5.9-15.65-22.42-37.95-19.11-54.46,7.43,13.21,21.11,17.45,34.68-5.79-15.69,32.22-4.13,86.73,12.61,86.27,6.39-.18,8.86.46,16.3-19.37,0,28.08-12.39,53.69,13.43,53.4,27.3-.31,25.19-34.74,19.61-54.22-3.71-13-26.43-29.73-9.92-55.34-8.25,20.65,13.94,36.8,19.83,47.91,5.49,10.36,7.89,29.91,5.78,40.47C529.55,444.92,518.82,474.66,457.7,473Z"/><path class="cls-10" d="M389.15,401.81c5.78,39.65,65.25,35.51,61.94-9.91,7.43,28.08,18.85,24.9,26.43,14.87-10.73,52.85,53.28,44.07,50.38,0,8,38.53-21.47,63.59-68.55,63.59C432.09,470.36,387.5,464.58,389.15,401.81Z"/><path class="cls-11" d="M734.74,408.4c-5.78,39.65-65.25,35.52-61.94-9.9-7.43,28.08-20.45,21-28,10.94,2.64,13,4.27,29.45-15.36,39.69,1.72,10.58,18.78,12.85,21.5,22.44a24.93,24.93,0,0,1,.83,4.57,106.85,106.85,0,0,0,12.79.82C691.79,477,736.39,471.18,734.74,408.4Z"/><path class="cls-12" d="M766.45,432.83c-22.05-3.06-17.51-46-9.71-59.53-5.51,6.76-7.29,13.35-8.33,21.85-1,8.2-5,16-14.86,2.33,9.39,13.67,6.61,22.41,6.41,30.74-.24,9.52-5.13,23.48-18.79,23.9,11,9.91,61,10.25,64.76-26.91C779.32,433.81,772.9,433.73,766.45,432.83Z"/><path class="cls-13" d="M324.28,761.65c-3.63,0-6-2.6-7.13-4.16a17.26,17.26,0,0,1-2.94-10V479a17.37,17.37,0,0,1,3-10.07c1.09-1.54,3.49-4.14,7.12-4.14H768.84c3.63,0,6,2.6,7.12,4.16A17.31,17.31,0,0,1,778.91,479V747.45a17.17,17.17,0,0,1-2.95,10c-1.1,1.56-3.49,4.16-7.12,4.16Z"/><path class="cls-14" d="M768.84,464.76c3.63,0,6,2.6,7.12,4.16A17.31,17.31,0,0,1,778.91,479V747.45a17.17,17.17,0,0,1-2.95,10c-1.1,1.56-3.49,4.16-7.12,4.16H324.28c-3.63,0-6-2.6-7.13-4.16a17.26,17.26,0,0,1-2.94-10V479a17.37,17.37,0,0,1,3-10.07c1.09-1.54,3.49-4.14,7.12-4.14H768.84m0-26.31H324.28c-11.29,0-21.7,5.55-28.57,15.22A43.46,43.46,0,0,0,287.9,479V747.45a43.29,43.29,0,0,0,7.75,25.19C302.56,782.4,313,788,324.28,788H768.84c11.29,0,21.7-5.56,28.57-15.24a44,44,0,0,0,7.81-25.27V479a44,44,0,0,0-7.77-25.22c-6.92-9.74-17.33-15.3-28.61-15.3Z"/><path class="cls-15" d="M361.8,505.64h23.9q20.73,0,20.73,22.59v70q0,10.53-8.55,14.91,8.55,4.39,8.55,15v70.07q0,22.48-21.71,22.59H361.8Zm15.57,15.24v84.55h4.82a15.31,15.31,0,0,0,4.5-.44q4.17-1.65,4.17-6.8v-70q0-7.35-6.69-7.35Zm0,99.89v84.66h6.8q6.69,0,6.69-7.24V628.12q0-5.14-4.17-6.8a12.46,12.46,0,0,0-4.5-.55Z"/><path class="cls-16" d="M422.88,505.64h40.24v15.24H438.45v84.55h21.27v15.34H438.45v84.66h24.67v15.35H422.88Z"/><path class="cls-17" d="M476.28,505.64h23.9q20.73,0,20.73,22.59v70q0,10.53-8.55,14.91,8.55,4.39,8.55,15v70.07q0,22.48-21.71,22.59H476.28Zm15.57,15.24v84.55h4.82a15.31,15.31,0,0,0,4.5-.44q4.17-1.65,4.17-6.8v-70q0-7.35-6.69-7.35Zm0,99.89v84.66h6.8q6.69,0,6.69-7.24V628.12q0-5.14-4.17-6.8a12.46,12.46,0,0,0-4.5-.55Z"/><path class="cls-18" d="M537.9,505.64h15.58V720.78H537.9Z"/><path class="cls-19" d="M571.57,505.64h23.91q20.71,0,20.72,22.59v170q0,22.48-21.71,22.59H571.57Zm15.57,15.24V705.43h6.8q6.69,0,6.69-7.24v-170q0-7.35-6.69-7.35Z"/><path class="cls-20" d="M646.25,666.61l-3.4,54.17H627.17l5-76.1,11-139h21.28l11,138.82,5.05,76.32H664.78l-3.4-54.17Zm14.25-15.35-6.69-107.14-6.69,107.14Z"/><path class="cls-21" d="M707,650.05v50.22c0,4.91,2.26,7.35,6.79,7.35s6.69-2.44,6.69-7.35V635.36q0-7.79-14.47-18.2t-14.59-25.22V526q0-22.59,22.26-22.59T736.06,526v50.44H720.48V526q0-7.23-6.69-7.23h-.11Q707,518.8,707,526v65.58q0,7.23,14.47,17.65T736.06,634v66.23q0,22.71-22.27,22.7t-22.37-22.7V650.05Z"/></g></g></svg>