<svg xmlns="http://www.w3.org/2000/svg" xmlns:xlink="http://www.w3.org/1999/xlink" viewBox="0 0 1080 1080"><defs><style>.cls-1{isolation:isolate;}.cls-2{fill:url(#linear-gradient);}.cls-3{fill:url(#linear-gradient-2);}.cls-4{fill:url(#linear-gradient-3);}.cls-5{fill:url(#linear-gradient-4);}.cls-11,.cls-6{mix-blend-mode:screen;}.cls-6{fill:url(#linear-gradient-5);}.cls-7{fill:url(#linear-gradient-6);}.cls-8{fill:url(#radial-gradient);}.cls-9{fill:url(#linear-gradient-7);}.cls-10{fill:url(#linear-gradient-8);}.cls-11{fill:url(#linear-gradient-9);}.cls-12{fill:url(#linear-gradient-10);}</style><linearGradient id="linear-gradient" x1="563.14" y1="288.35" x2="563.21" y2="288.79" gradientUnits="userSpaceOnUse"><stop offset="0" stop-color="#ff1f00"/><stop offset="1" stop-color="#fe0"/></linearGradient><linearGradient id="linear-gradient-2" x1="541.64" y1="315.96" x2="541.64" y2="509.65" xlink:href="#linear-gradient"/><linearGradient id="linear-gradient-3" x1="540.55" y1="265.37" x2="540.55" y2="507.86" xlink:href="#linear-gradient"/><linearGradient id="linear-gradient-4" x1="652.82" y1="425.97" x2="652.82" y2="427.08" gradientUnits="userSpaceOnUse"><stop offset="0"/><stop offset="1" stop-color="#ff8400"/></linearGradient><linearGradient id="linear-gradient-5" x1="545.04" y1="332.53" x2="545.04" y2="421.53" xlink:href="#linear-gradient-4"/><linearGradient id="linear-gradient-6" x1="541.36" y1="490.39" x2="541.36" y2="864.91" gradientUnits="userSpaceOnUse"><stop offset="0" stop-color="#fe0"/><stop offset="0.1" stop-color="#ffe600"/><stop offset="0.25" stop-color="#ffd100"/><stop offset="0.44" stop-color="#ffae00"/><stop offset="0.65" stop-color="#ff7e00"/><stop offset="0.88" stop-color="#ff4000"/><stop offset="1" stop-color="#ff1f00"/></linearGradient><radialGradient id="radial-gradient" cx="541.36" cy="654.35" r="181.41" gradientTransform="translate(1054.41 -22.43) rotate(76.77)" gradientUnits="userSpaceOnUse"><stop offset="0"/><stop offset="0.28" stop-color="#030000"/><stop offset="0.47" stop-color="#0c0000"/><stop offset="0.63" stop-color="#1b0000"/><stop offset="0.77" stop-color="#300000"/><stop offset="0.91" stop-color="#4b0000"/><stop offset="1" stop-color="#630000"/></radialGradient><linearGradient id="linear-gradient-7" x1="634.15" y1="246.96" x2="634.15" y2="331.5" xlink:href="#linear-gradient"/><linearGradient id="linear-gradient-8" x1="636.66" y1="244.08" x2="636.66" y2="316.02" xlink:href="#linear-gradient"/><linearGradient id="linear-gradient-9" x1="635.3" y1="284.46" x2="635.3" y2="324.65" xlink:href="#linear-gradient-4"/><linearGradient id="linear-gradient-10" x1="540.55" y1="762.06" x2="540.55" y2="546.64" xlink:href="#linear-gradient-6"/></defs><g class="cls-1"><g id="Camada_1" data-name="Camada 1"><path class="cls-2" d="M563.3,288.66l.1.09-.06-.13C562.81,288.08,562.79,288.09,563.3,288.66Z"/><path class="cls-3" d="M700.22,529.3a113.81,113.81,0,0,0-15.86-8.5c-33.25-15.25-85-25-143.23-25-58.41,0-110.38,9.85-143.63,25.19a122.34,122.34,0,0,0-15.17,8.15c-22.81-66.25,27.22-100.91,50.13-163.52,5.57-15.17,10.6-38.13,4.12-53.29,17.66,25.16,28.35,50.74,27.87,80,2.33-45.79,39-93.81,29.18-140.52-2.23-10.38-5.91-18.58-12.75-25.72,36.19,33.3,84.43,95.74,87.24,142.71,9.29-26.86,18.36-53.23,5.22-78.38,30.45,23.92,37.21,41.86,45.95,88.07,4.21-28.66,21.91-50.75,47.2-62.05C610.05,357.77,736.11,429.05,700.22,529.3Z"/><path class="cls-4" d="M684.36,520.8a214.45,214.45,0,0,0-32.16-11.48c-30.72-8.5-69.23-13.53-111.07-13.53-36.11,0-69.81,3.76-98.07,10.25-17.44,4-32.85,9.06-45.56,14.94-13.36-32.16,7.76-91.14,21.6-111.86,8.06-12,18-22.92,26.42-34.67-2.49,21.52,9.86,56.49,29.85,68-17.44-44.48,28.38-85.54,29.91-128.65,17.06,42.42,66.22,60.33,77.78,108.88,10.65-13.36,10.12-34.61,6.83-50.47,13.64,21.77,29.4,38.2,47,55.91.61-16,3.59-36.9-1.32-49.34C671.05,417.48,697.69,477.38,684.36,520.8Z"/><path class="cls-5" d="M652.86,427v.26a.61.61,0,0,0-.08-.26C652.82,425.85,652.86,425.85,652.86,427Z"/><path class="cls-6" d="M647.84,491.88c-30.71-8.5-69.23-13.54-111.07-13.54-36.1,0-69.8,3.77-98.06,10.26-10.78-23.54-8.85-61-4.91-77.65,3.51,28.79,33.87,48.68,61.16,52.23-25.76-36.54,7.45-82,17.67-117.21,22.17,33.26,51.26,58,67.52,95.74,10.6-10.08,13.49-26.42,14.28-40.62,12.93,13.1,26.64,33.3,32.38,50.83,14.2-8.11,23.05-25.54,21.68-42.15C664.32,446.49,661.91,473.26,647.84,491.88Z"/><path class="cls-7" d="M747.19,654.35C747.19,768,655,860.17,541.36,860.17S335.54,768,335.54,654.35s92.14-205.82,205.82-205.82S747.19,540.68,747.19,654.35Z"/><circle class="cls-8" cx="541.36" cy="654.35" r="181.41" transform="translate(-219.54 1031.54) rotate(-76.77)"/><path class="cls-9" d="M633.12,329.62c26.87-30.4,25.11-69.41-7.38-86.4C637.06,273.75,594.35,296.39,633.12,329.62Z"/><path class="cls-10" d="M632.73,327.62c-17.92-17.91,1.13-56,1.87-67.78C650.85,268.7,655.35,302.64,632.73,327.62Z"/><path class="cls-11" d="M632.62,327.17c-7.8-11.41-4.68-23.84-.23-35.58,1.45-3.84,3.06-10.13,1.64-15.79,11.09,12.49,11,28.89,3.15,42.48a47.23,47.23,0,0,0-4.32,9.36Z"/><path class="cls-12" d="M540.55,566.05c28.76,0,32.16.11,43.52.63,10.5.48,16.2,2.23,20,3.71a35.64,35.64,0,0,1,20.44,20.44c1.48,3.8,3.23,9.5,3.71,20,.52,11.36.63,14.76.63,43.52s-.11,32.17-.63,43.52c-.48,10.51-2.23,16.21-3.71,20a35.62,35.62,0,0,1-20.44,20.45c-3.8,1.47-9.5,3.23-20,3.7-11.36.52-14.76.63-43.52.63s-32.17-.11-43.52-.63c-10.5-.47-16.21-2.23-20-3.7a35.68,35.68,0,0,1-20.45-20.45c-1.47-3.79-3.22-9.49-3.71-20-.51-11.35-.62-14.76-.62-43.52s.11-32.16.62-43.52c.49-10.5,2.24-16.2,3.71-20A35.7,35.7,0,0,1,477,570.39c3.79-1.48,9.5-3.23,20-3.71,11.35-.52,14.76-.63,43.52-.63m0-19.41c-29.25,0-32.92.13-44.41.65s-19.29,2.35-26.14,5a55,55,0,0,0-31.5,31.5c-2.67,6.85-4.49,14.68-5,26.14s-.65,15.16-.65,44.41.13,32.92.65,44.41,2.34,19.29,5,26.14A55,55,0,0,0,470,756.4c6.85,2.67,14.68,4.49,26.14,5s15.16.65,44.41.65,32.92-.13,44.41-.65,19.29-2.34,26.14-5a55,55,0,0,0,31.5-31.5c2.66-6.85,4.48-14.68,5-26.14s.64-15.16.64-44.41-.12-32.92-.64-44.41-2.35-19.29-5-26.14a55,55,0,0,0-31.5-31.5c-6.85-2.66-14.68-4.48-26.14-5s-15.16-.65-44.41-.65m0,52.4a55.31,55.31,0,1,0,55.31,55.31A55.31,55.31,0,0,0,540.55,599m0,91.21a35.9,35.9,0,1,1,35.9-35.9,35.9,35.9,0,0,1-35.9,35.9M611,596.86A12.93,12.93,0,1,0,598,609.78,12.93,12.93,0,0,0,611,596.86"/></g></g></svg>