<svg xmlns="http://www.w3.org/2000/svg" xmlns:xlink="http://www.w3.org/1999/xlink" viewBox="0 0 1080 1080"><defs><style>.cls-1{isolation:isolate;}.cls-2{fill:url(#linear-gradient);}.cls-3{fill:url(#linear-gradient-2);}.cls-4,.cls-7{mix-blend-mode:screen;}.cls-4{fill:url(#linear-gradient-3);}.cls-5{fill:url(#linear-gradient-4);}.cls-6{fill:url(#linear-gradient-5);}.cls-7{fill:url(#linear-gradient-6);}.cls-8{fill:url(#linear-gradient-7);}.cls-9{fill:url(#linear-gradient-8);}.cls-10{fill:url(#linear-gradient-9);}.cls-11{fill:url(#linear-gradient-10);}.cls-12{fill-rule:evenodd;fill:url(#linear-gradient-11);}</style><linearGradient id="linear-gradient" x1="547.66" y1="260.95" x2="547.66" y2="492.68" gradientUnits="userSpaceOnUse"><stop offset="0" stop-color="#ff1f00"/><stop offset="1" stop-color="#fe0"/></linearGradient><linearGradient id="linear-gradient-2" x1="472.5" y1="226.85" x2="472.5" y2="482.1" xlink:href="#linear-gradient"/><linearGradient id="linear-gradient-3" x1="472.9" y1="320.66" x2="472.9" y2="505.39" gradientUnits="userSpaceOnUse"><stop offset="0"/><stop offset="1" stop-color="#ff8400"/></linearGradient><linearGradient id="linear-gradient-4" x1="398.48" y1="259.43" x2="408.02" y2="319.47" xlink:href="#linear-gradient"/><linearGradient id="linear-gradient-5" x1="675.37" y1="226.84" x2="675.37" y2="482.1" xlink:href="#linear-gradient"/><linearGradient id="linear-gradient-6" x1="676.54" y1="319.01" x2="676.54" y2="508" xlink:href="#linear-gradient-3"/><linearGradient id="linear-gradient-7" x1="636.52" y1="267.86" x2="652.12" y2="366.12" xlink:href="#linear-gradient"/><linearGradient id="linear-gradient-8" x1="636.08" y1="252.3" x2="643.52" y2="347.78" xlink:href="#linear-gradient"/><linearGradient id="linear-gradient-9" x1="551.58" y1="840.27" x2="551.58" y2="470.37" gradientUnits="userSpaceOnUse"><stop offset="0"/><stop offset="0.16" stop-color="#0c0000"/><stop offset="0.46" stop-color="#2c0000"/><stop offset="0.85" stop-color="#5f0000"/><stop offset="1" stop-color="#750000"/></linearGradient><linearGradient id="linear-gradient-10" x1="551.58" y1="874.36" x2="551.58" y2="487.35" gradientUnits="userSpaceOnUse"><stop offset="0" stop-color="#ff1f00"/><stop offset="0.22" stop-color="#ff5700"/><stop offset="0.49" stop-color="#ff9700"/><stop offset="0.72" stop-color="#ffc600"/><stop offset="0.9" stop-color="#ffe300"/><stop offset="1" stop-color="#fe0"/></linearGradient><linearGradient id="linear-gradient-11" x1="551.58" y1="796.61" x2="551.58" y2="567.83" gradientUnits="userSpaceOnUse"><stop offset="0" stop-color="#fe0"/><stop offset="0.1" stop-color="#ffe600"/><stop offset="0.25" stop-color="#ffd100"/><stop offset="0.44" stop-color="#ffae00"/><stop offset="0.65" stop-color="#ff7e00"/><stop offset="0.88" stop-color="#ff4000"/><stop offset="1" stop-color="#ff1f00"/></linearGradient></defs><g class="cls-1"><g id="Camada_1" data-name="Camada 1"><path class="cls-2" d="M733,264.35c-44.36,1.88-89.39,87-78.59,156-5.41-34.2-28.28-60.44-58.21-75,15,17.19,13.25,35.82,7.14,56.1C595.81,343.88,568.9,291,568.9,291c12.39,61.93-22.52,84.47-22.52,84.47,3.37-150.91-125-170.07-125-170.07,83.33,37.17,51.8,138.54,51.8,138.54,1.12-37.17-16.89-94.61-57.44-107,34.54,18,24,54.06-4.51,106.61-14.05,25.91-25.52,49.55-22.51,81.08-12-34.53-17.27-52.17,2.24-89.71-68.69,59.68-109.23,210.6,77.71,210.6,63.14,0,242.11,9.19,280.54-36.33C803.76,444.53,660.1,309.52,733,264.35Z"/><path class="cls-3" d="M478.81,538.72c-47.38,2.88-159.92,0-109.24-154.29-2.25,42.8,14.64,40.55,32.67,79.22-9-112.62,49.54-88.59,45.78-168.18,21,30,23.72,75.72,15.77,106.62,27.95-23.95,61.57-108.11,25.68-149.63,50.89,46,50.89,119.6,35.89,175.15,31.53-3,54-34.54,57-63.06C610.94,501.18,528.36,535.72,478.81,538.72Z"/><path class="cls-4" d="M472.15,511.34c-54.81,0-80.33-16.51-91.6-66.81,21,32.28,37.62,37.05,51.07,39-34.54-34.53-4.51-98.35,15-126.13-1.14,21.44-12,57.82,15.76,87.84-3.75-53.31,57.81-60.82,50.3-136.64,17.27,65.31,5.83,116.63-9.75,138.9,21.76-3,45-9.77,62.31-33.05C551,494.07,507.43,511.34,472.15,511.34Z"/><path class="cls-5" d="M397,319.87c12.76-11.25,21.68-20,18.77-38.47C412.36,260,389.28,257.18,396,237.48c-19.14,21.4-9.33,34.85,1.69,49.55C404.48,296,401.1,312,397,319.87Z"/><path class="cls-6" d="M606.4,515.76C588.8,462,641.2,428.16,619.6,385c23,11.18,35.4,39.59,39,73.21-3.6-64.82,16.8-114.62,49.2-130.81C677.2,385,777.73,466.82,739,514,711.4,547.55,617.8,550.55,606.4,515.76Z"/><path class="cls-7" d="M620.21,513c-12.72-38.51,26.88-60.23,11.4-91.21,18.6,10.19,28.79,24.59,33.6,57-3-36-7.8-85.2,25.19-133.2-17.39,61.81,65.4,114,40.21,160.8C715.06,535.22,629.23,540.3,620.21,513Z"/><path class="cls-8" d="M647.05,364.72c-35.55-30.16-39.3-57.07-36.57-74,1.61-10,6.45-17.06,13.11-24.47-7.73,10.61,1.51,23.72,5.39,33.64-5.86-11.21,5.84-25.92,11-35.6,6.9-12.86,6.2-20.22,2.58-33.92,20.69,13.87,32.06,35.65,25.16,60.6C662.64,309.5,641.65,327.36,647.05,364.72Z"/><path class="cls-9" d="M620.08,296c1.77,11.1,8.53,19.1,15.21,22.27-7.76-23.35,7.92-30.92,18.08-49,2.42-4.33,4.13-9.71,3.58-14.67,2.37,14.7,5.84,18.31,3.6,33.16-2.28,15.09-24.14,46.8-18,65.25C633.54,345.36,609.25,319.7,620.08,296Z"/><path class="cls-10" d="M512.94,845.5H401a15.18,15.18,0,0,1-10-3.56,11.34,11.34,0,0,1-4.13-8.56v-305a11.39,11.39,0,0,1,4.13-8.58,15.24,15.24,0,0,1,10-3.55H702.14a15.19,15.19,0,0,1,10,3.55,11.36,11.36,0,0,1,4.14,8.58v305a11.31,11.31,0,0,1-4.14,8.56,15.13,15.13,0,0,1-10,3.56H512.94Z"/><path class="cls-11" d="M702.14,516.2a15.19,15.19,0,0,1,10,3.55,11.36,11.36,0,0,1,4.14,8.58v305a11.31,11.31,0,0,1-4.14,8.56,15.13,15.13,0,0,1-10,3.56H401a15.18,15.18,0,0,1-10-3.56,11.34,11.34,0,0,1-4.13-8.56v-305a11.39,11.39,0,0,1,4.13-8.58,15.24,15.24,0,0,1,10-3.55H702.14m0-28.85H401a44.19,44.19,0,0,0-28.7,10.45,40.25,40.25,0,0,0-14.27,30.53v305a40.21,40.21,0,0,0,14.19,30.45A44.15,44.15,0,0,0,401,874.36H702.14a44.16,44.16,0,0,0,28.79-10.53,40.22,40.22,0,0,0,14.19-30.45v-305a40.22,40.22,0,0,0-14.2-30.47,44.23,44.23,0,0,0-28.78-10.51Z"/><path class="cls-12" d="M665.9,676.44c-1.53-60.25-51.15-108.61-112.24-108.61-60.35,0-109.56,47.26-112.18,106.56-.06,1.63-.11,3.26-.11,4.89a110.56,110.56,0,0,0,16.09,57.56l-20.24,59.77,62.19-19.76a112.44,112.44,0,0,0,54.25,13.88c62,0,112.29-49.89,112.29-111.45C666,678.33,666,677.38,665.9,676.44ZM553.66,773a94,94,0,0,1-51.94-15.51L465.45,769l11.77-34.8a92.74,92.74,0,0,1-18-54.93,86,86,0,0,1,.48-9.1c4.62-47.42,45-84.58,93.94-84.58,49.57,0,90.32,38.11,94.1,86.37.21,2.42.32,4.84.32,7.31C648.08,731,605.7,773,553.66,773Zm56.72-68c.69,1.16.69,6.62-1.63,13s-13.51,12.56-18.55,13-5.05,4.1-33.07-6.78-45.63-39.48-47-41.27a62.09,62.09,0,0,1-9.83-18.92,34.76,34.76,0,0,1-1.42-9.31c0-13.46,7.1-20.08,9.62-22.81a10.17,10.17,0,0,1,7.36-3.42c1.84,0,3.68.26,5.26.26s3.94-.94,6.2,4.52,7.83,18.93,8.52,20.29a4.94,4.94,0,0,1,.21,4.79,29.35,29.35,0,0,1-1.74,3.26l-1,1.31c-1.42,1.58-2.9,3.52-4.16,4.79s-2.78,2.84-1.21,5.57a81.71,81.71,0,0,0,15.3,18.87c10.52,9.36,19.4,12.2,22.13,13.56s4.37,1.16,6-.68,6.88-7.94,8.72-10.67,3.68-2.31,6.21-1.37,16,7.52,18.82,8.89S609.7,703.83,610.38,704.93Z"/></g></g></svg>