<svg xmlns="http://www.w3.org/2000/svg" xmlns:xlink="http://www.w3.org/1999/xlink" viewBox="0 0 1080 1080"><defs><style>.cls-1{isolation:isolate;}.cls-2{fill:url(#linear-gradient);}.cls-3{fill:url(#linear-gradient-2);}.cls-4{fill:url(#linear-gradient-3);}.cls-10,.cls-11,.cls-12,.cls-16,.cls-18,.cls-5,.cls-8{mix-blend-mode:screen;}.cls-5{fill:url(#linear-gradient-4);}.cls-6{fill:url(#linear-gradient-5);}.cls-7{fill:url(#linear-gradient-6);}.cls-8{fill:url(#linear-gradient-7);}.cls-9{fill:url(#linear-gradient-8);}.cls-10{fill:url(#linear-gradient-9);}.cls-11{fill:url(#linear-gradient-10);}.cls-12{fill:url(#linear-gradient-11);}.cls-13{fill:url(#linear-gradient-12);}.cls-14{fill:url(#linear-gradient-13);}.cls-15{fill:url(#linear-gradient-14);}.cls-16{fill:url(#linear-gradient-15);}.cls-17{fill:url(#linear-gradient-16);}.cls-18{fill:url(#linear-gradient-17);}.cls-19{fill:url(#linear-gradient-18);}.cls-20{fill:url(#linear-gradient-19);}.cls-21{fill:url(#linear-gradient-20);}.cls-22{fill:url(#linear-gradient-21);}.cls-23{fill:url(#linear-gradient-22);}.cls-24{fill:url(#linear-gradient-23);}.cls-25{fill:url(#linear-gradient-24);}.cls-26{fill:url(#linear-gradient-25);}.cls-27{fill:url(#linear-gradient-26);}.cls-28{fill:url(#linear-gradient-27);}.cls-29{fill:url(#linear-gradient-28);}.cls-30{fill:url(#linear-gradient-29);}.cls-31{fill:url(#linear-gradient-30);}</style><linearGradient id="linear-gradient" x1="412.56" y1="320.01" x2="412.56" y2="456.18" gradientUnits="userSpaceOnUse"><stop offset="0" stop-color="#ff1f00"/><stop offset="1" stop-color="#fe0"/></linearGradient><linearGradient id="linear-gradient-2" x1="137.84" y1="344.94" x2="137.89" y2="345.27" xlink:href="#linear-gradient"/><linearGradient id="linear-gradient-3" x1="193.51" y1="300.72" x2="193.51" y2="446.17" xlink:href="#linear-gradient"/><linearGradient id="linear-gradient-4" x1="194.39" y1="383.08" x2="194.39" y2="449.68" gradientUnits="userSpaceOnUse"><stop offset="0"/><stop offset="1" stop-color="#ff8400"/></linearGradient><linearGradient id="linear-gradient-5" x1="399.3" y1="319.5" x2="399.36" y2="319.89" xlink:href="#linear-gradient"/><linearGradient id="linear-gradient-6" x1="544.56" y1="293.35" x2="544.56" y2="442.27" xlink:href="#linear-gradient"/><linearGradient id="linear-gradient-7" x1="464.83" y1="372.67" x2="464.83" y2="446.42" xlink:href="#linear-gradient-4"/><linearGradient id="linear-gradient-8" x1="322.3" y1="296.22" x2="322.3" y2="451.87" xlink:href="#linear-gradient"/><linearGradient id="linear-gradient-9" x1="322.34" y1="383.43" x2="322.34" y2="474.7" xlink:href="#linear-gradient-4"/><linearGradient id="linear-gradient-10" x1="-1314.36" y1="372.67" x2="-1314.36" y2="446.42" gradientTransform="matrix(-1, 0, 0, 1, -754.37, 0)" xlink:href="#linear-gradient-4"/><linearGradient id="linear-gradient-11" x1="636.17" y1="407.22" x2="636.17" y2="462.69" xlink:href="#linear-gradient-4"/><linearGradient id="linear-gradient-12" x1="726.17" y1="299.07" x2="726.27" y2="299.68" xlink:href="#linear-gradient"/><linearGradient id="linear-gradient-13" x1="808.78" y1="325.12" x2="808.78" y2="449.15" xlink:href="#linear-gradient"/><linearGradient id="linear-gradient-14" x1="753.03" y1="303" x2="753.03" y2="441.92" xlink:href="#linear-gradient"/><linearGradient id="linear-gradient-15" x1="752.73" y1="388.83" x2="752.73" y2="443.2" xlink:href="#linear-gradient-4"/><linearGradient id="linear-gradient-16" x1="705.39" y1="210.28" x2="705.39" y2="349.21" gradientTransform="matrix(0.99, 0.14, -0.14, 0.99, 228.48, 0.64)" xlink:href="#linear-gradient"/><linearGradient id="linear-gradient-17" x1="709.76" y1="296.72" x2="709.76" y2="351.09" gradientTransform="matrix(0.99, 0.14, -0.14, 0.99, 228.48, 0.64)" xlink:href="#linear-gradient-4"/><linearGradient id="linear-gradient-18" x1="546.82" y1="771.51" x2="546.82" y2="455.9" gradientUnits="userSpaceOnUse"><stop offset="0"/><stop offset="0.16" stop-color="#0c0000"/><stop offset="0.46" stop-color="#2c0000"/><stop offset="0.85" stop-color="#5f0000"/><stop offset="1" stop-color="#750000"/></linearGradient><linearGradient id="linear-gradient-19" x1="546.82" y1="799.05" x2="546.82" y2="452.16" gradientUnits="userSpaceOnUse"><stop offset="0" stop-color="#ff1f00"/><stop offset="0.22" stop-color="#ff5700"/><stop offset="0.49" stop-color="#ff9700"/><stop offset="0.72" stop-color="#ffc600"/><stop offset="0.9" stop-color="#ffe300"/><stop offset="1" stop-color="#fe0"/></linearGradient><linearGradient id="linear-gradient-20" x1="236.89" y1="731.91" x2="236.89" y2="516.76" xlink:href="#linear-gradient-19"/><linearGradient id="linear-gradient-21" x1="297.92" y1="731.91" x2="297.92" y2="516.76" xlink:href="#linear-gradient-19"/><linearGradient id="linear-gradient-22" x1="370.4" y1="731.91" x2="370.4" y2="516.76" xlink:href="#linear-gradient-19"/><linearGradient id="linear-gradient-23" x1="444.03" y1="731.91" x2="444.03" y2="516.76" xlink:href="#linear-gradient-19"/><linearGradient id="linear-gradient-24" x1="505.11" y1="734.1" x2="505.11" y2="516.76" xlink:href="#linear-gradient-19"/><linearGradient id="linear-gradient-25" x1="569.21" y1="731.91" x2="569.21" y2="516.76" xlink:href="#linear-gradient-19"/><linearGradient id="linear-gradient-26" x1="626.72" y1="734.1" x2="626.72" y2="514.57" xlink:href="#linear-gradient-19"/><linearGradient id="linear-gradient-27" x1="687.8" y1="734.1" x2="687.8" y2="516.76" xlink:href="#linear-gradient-19"/><linearGradient id="linear-gradient-28" x1="747.78" y1="731.91" x2="747.78" y2="516.76" xlink:href="#linear-gradient-19"/><linearGradient id="linear-gradient-29" x1="805.3" y1="731.91" x2="805.3" y2="516.76" xlink:href="#linear-gradient-19"/><linearGradient id="linear-gradient-30" x1="861.71" y1="734.1" x2="861.71" y2="514.57" xlink:href="#linear-gradient-19"/></defs><g class="cls-1"><g id="Camada_1" data-name="Camada 1"><path class="cls-2" d="M660.7,369.16c11.07,17.65,12.15,29.77,5.61,45.43-4.1,9.82-13.11,10.53-20.94-.41-6.5-9.08,0-23.39,2.09-32.86,5.67-26.24,23.72-53.11-16.6-80.52,4.17,6.35,7.8,16,8.52,23.18,1.43,14.24-10.91,14.78-19.6,12.48C605,332.56,607,308,615.25,293.74c-13.53,11.67-16.2,24.07-14,35.69,2.92,15.14,27.17,37.1,19.83,50.53-11.16,20.43-23.31-2.46-16.17-25.4-4.06,6.67-10.16,21.11-9.18,28.51.89,6.74,12.26,21,2.56,30.7-14.72,14.72-30.62,5.06-32.41-14.76-1.65-18.18,15.89-35.68,21.17-52.33,6.89-21.74,11.43-35.89-15.56-53.59,17,10.08,3.83,33.47-13.51,25-15.58-7.63-9.41-28.48,3.21-35.53-24.85,6.39-36.67,23.86-22.16,56.77,3.82,8.67,18,49.31-10.66,53.86-19.71,3.12-83.73-93.29-38.68-106.48-51,11.83-46.55,37.48-44.6,61.43,1.82,22.3,47.33,75.08,2.16,75.08-22.32,0-11.92-36.51-15.31-55.71-3.68-20.91-9.71-25.92-26.67-38.81,10.13,14.1,5.65,32.19,1.13,45.75-.94,2.84-2,5.86-3,9-11.29-25.74-31-52.94-22.79-81.22-19.38,22-21.29,47.88-13.22,66,5.41,12.15,32.58,64.28-2.64,64.28-32.57,0,14.1-39.63-24.54-70.3,4.57,7.8,10.46,33-1.95,33-27.08,0-17.42-48.73-13.55-57.51,14.51-32.9,2.7-50.38-22.15-56.76,12.61,7,18.78,27.89,3.2,35.53-17.33,8.5-30.55-14.89-13.5-25-27,17.7-22.47,31.86-15.57,53.59,5.28,16.66,22.82,34.15,21.17,52.33-1.8,19.83-24.82,26.63-35.94,9-15-23.62,28.57-67.19-33.64-83,23.77,11.45,10.34,33.27,4.38,50.81q-.81,2.42-1.55,4.83c-16.68-19.87-44.88-46.79-18.6-80.18-27.16,8.77-37.94,49.42-33.32,69.63,2.7,11.8,38.92,61.8,0,61.8C160,430.4,169,402.91,166,386.34c-3.19-18-8.39-22.37-23-33.49,8.74,12.16,4.87,27.77,1,39.47-7.42,22.27-11.44,44,6.6,64.5,8.28,9.42,20.55,12.57,33.33,12.38a98.78,98.78,0,0,0,32.64-3c9.66-2.4,16.91-6,22.19-10.62.63,1,1.23,2.07,1.92,3.11,17,25.75,56.32,26.46,76.59,26.61,37.8.28,66.59-11.28,81.93-30.73a40.22,40.22,0,0,0,5.59,8.35c9.61,10.92,33.11.8,47.93.58,12.42,1.07,24.94-.28,37.81-3.48a77.64,77.64,0,0,0,15.21-5.4,63.17,63.17,0,0,0,2.19,19.82c.74,2.62,19.85,9.16,19.82,11.52a165.12,165.12,0,0,0,18.82.92c18.7-.14,53.54-.8,72.19-21.1a20.72,20.72,0,0,1-2.13-8.77,61.7,61.7,0,0,0,16.88,3.48c29.18,2.28,40.93,7.34,51-12.74C694.87,427,675.3,384.29,660.7,369.16Z"/><path class="cls-3" d="M137.9,345.12l.15.12-.1-.15C137.58,344.75,137.56,344.76,137.9,345.12Z"/><path class="cls-4" d="M167.61,465.89c-23.93-10.05-24-26.44-21.06-45.44,2-12.86,15.1-29.73,8.76-49.22,16.09,18.52-6.81,68.71,25.35,68.71,33.34,0,22.44-35.17,16.5-51.91-5.67-16-12.61-28-4.82-46.23-1,31.86,63.09,60.54,46.79,102C228.41,471.13,183.81,472.68,167.61,465.89Z"/><path class="cls-5" d="M154.34,412.65c3.9,50.68,56.53,44.84,56.53,2.93,0-9.7-7.8-22.42-8.78-43.86,5.86,22.42,28.2,37.3,33.14,54.58,4.59,16-8,35.25-35.08,39C171.88,469.19,145.57,460.41,154.34,412.65Z"/><path class="cls-6" d="M399.37,319.71l.18.14-.12-.18C399,319.28,399,319.3,399.37,319.71Z"/><path class="cls-7" d="M674.28,407.21c-.94,9.94-4.4,21.09-15.31,23.82-27.15,6.79-22.78-29.08-17.29-43.41,7.06-18.42,8.61-34.49,5.84-54.06-.58,13.34-21.91,26.82-29.46,11,2,5.43,5.28,9.62,8.06,14.58,5.35,9.55,6.37,20.8-.35,30.32-5.46,7.74-20,11.38-25-10,2.73,20.94,8.89,25.83,4.56,35.95-6.83,15.92-59.16,21.39-44.24-31.22,4.86-17.14,23.9-40.45,20.38-58.05-7.93,14.09-21.19,19.2-37-6.16,10.78,35.82,13.3,78.85-11.51,82.69-19.63,3-71.57-44.15-65.44-93.21-12,5.73-16.64,39.43-2.62,59.58,11.75,16.89,22.66,60.51-16,60.51-37.27,0-10.74-58.16-29.36-79.61,7.33,22.59-7.88,42.13-10.17,57-3.39,22-3.32,41,24.41,52.65C449.44,466.21,538,482.16,543.58,482c30-.81,54.83-4.1,68.43-20.65,28.21,0,45.86.32,56.17-4.55C688.39,447.25,680.75,420.88,674.28,407.21Z"/><path class="cls-8" d="M418.43,398c4.51,58.73,65.5,52,65.5,3.39,0-11.23-9-26-10.17-50.81,6.78,26,32.67,43.21,38.4,63.24,5.31,18.57-9.33,40.85-40.66,45.17C438.75,463.47,408.26,453.3,418.43,398Z"/><path class="cls-9" d="M320.78,480c-46.8-1.26-81.28-8.46-79.59-63.08.42-13.5,3.77-26.06,9-38.47.34-.31.35-.3,0,0-13.9,62.48,76.67,66.15,53.11,3.74-6.29-16.67-23.9-40.44-20.37-58.05,7.92,14.08,22.5,18.6,37-6.17-16.73,34.34-4.4,92.45,13.44,92,6.82-.19,9.45.48,17.38-20.65,0,29.94-13.21,57.23,14.32,56.92,29.1-.33,26.84-37,20.9-57.8-4-13.82-28.18-31.69-10.57-59-8.8,22,14.85,39.22,21.14,51.07,5.85,11,8.4,31.88,6.16,43.14C397.38,450.08,385.94,481.78,320.78,480Z"/><path class="cls-10" d="M247.71,404.12c6.16,42.27,69.55,37.86,66-10.56,7.93,29.93,20.1,26.54,28.18,15.85-11.44,56.34,56.8,47,53.71,0,8.56,41.07-22.89,67.79-73.08,67.79C293.49,477.2,245.94,471,247.71,404.12Z"/><path class="cls-11" d="M616.11,411.15c-6.16,42.27-69.55,37.87-66-10.55-7.92,29.93-21.79,22.35-29.87,11.65,2.81,13.86,4.54,31.4-16.38,42.32,1.83,11.28,20,13.7,22.92,23.92a27.57,27.57,0,0,1,.89,4.87,114.22,114.22,0,0,0,13.63.88C570.33,484.24,617.88,478.08,616.11,411.15Z"/><path class="cls-12" d="M649.91,437.2c-23.5-3.27-18.66-49.07-10.34-63.47-5.87,7.21-7.77,14.23-8.88,23.29-1.08,8.75-5.37,17.06-15.84,2.49,10,14.57,7,23.88,6.83,32.77-.25,10.15-5.47,25-20,25.48,11.67,10.56,65.07,10.92,69-28.7C663.64,438.24,656.79,438.15,649.91,437.2Z"/><path class="cls-13" d="M725.4,299.8l1.6-1.09A17.25,17.25,0,0,0,725.4,299.8Z"/><path class="cls-14" d="M941.38,393.28c-9.19-23.46-45.17-53.42-32.78-81.66-6.58,4.79-14.11,21.09-10.67,35.34,4.12,17.11,31.81,52.24.12,61.57C886.37,412,875.41,403.19,873.9,391c-1.65-13.46,4.54-24.58,18.09-30.27-10.17-2-27.18,4.89-29.27,17.37-.67-22.75-3.4-58.79-35.86-55.86,15.18,6.14,18.84,16.75,14.67,33-2.87,11.19-9,21.52-14.61,32.27-8.18-25-31.36-51.66-23.29-79.53-16.8,19.08-18.46,41.52-11.45,57.26,4.69,10.54,28.25,55.74-2.3,55.74-28.25,0,12.22-34.36-21.28-61,4,6.76,9.07,28.66-1.69,28.66-23.49,0-15.11-42.27-11.74-49.87,12.58-28.54,2.32-43.7-19.22-49.24,10.93,6.12,16.29,24.2,2.77,30.82-14.44,7.08-25.57-11.35-13.32-20.56-21.59,14.84-17.72,27-11.88,45.38,4.58,14.44,19.79,29.62,18.36,45.39-1.56,17.19-21.53,23.09-31.18,7.84-13-20.49,15.12-63-28.4-73.66,20.62,9.92,15.09,29.83,9.92,45-8.42,24.85-23.59,61.62,5.68,86.45,20.41,17.32,43.17,10.4,60.76,10.52,31.87.23,172.8.41,184.06-11.4C950.45,436.73,949.19,413.2,941.38,393.28Zm-78.72-10.12v-.29a2.3,2.3,0,0,1,0,.26C862.62,383.63,862.6,383.64,862.66,383.16Z"/><path class="cls-15" d="M751.7,462.18c-40.58-1.09-70.48-7.33-69-54.7.37-11.71,3.27-22.6,7.79-33.37.29-.26.31-.25,0,0-12,54.19,66.49,57.37,46.06,3.25-5.46-14.46-20.73-35.08-17.67-50.35,6.87,12.22,13.74,12.22,32.07-5.34-14.51,29.78-3.82,80.17,11.65,79.75,5.91-.16,8.19.42,15.07-17.9,0,26-11.45,49.63,12.42,49.36,25.23-.29,23.28-32.11,18.12-50.12-3.43-12-24.43-27.49-9.16-51.16-7.63,19.09,12.88,34,18.32,44.29,5.09,9.57,7.3,27.64,5.35,37.41C818.14,436.23,808.21,463.71,751.7,462.18Z"/><path class="cls-16" d="M688.34,401.1c5.34,36.65,60.32,32.83,57.26-9.16,6.87,26,17.43,23,24.44,13.74-9.93,48.87,42,37.41,46.57,0,4.58,32.84-19.85,58.8-63.37,58.8C728,464.48,686.81,459.13,688.34,401.1Z"/><path class="cls-17" d="M833.5,441c-10.67-10.91-7.55-31,.79-47.39,5.28-10.39,20.54-19.91,14.72-40.42,13.11,16.47,5.9,29.24,11,40-.48-6,4.12-16,10.77-17.82-15.87,43.06,40,59.33,47.61,16a33.07,33.07,0,0,0-4.7-24.6c27.62,24.84,36.76,66.93,4,87.38-9.6,6-22.26,8-38.77,5.75C867.11,458.3,847,454.77,833.5,441Z"/><path class="cls-18" d="M879,459.45c-29.41-5.38-56.93-19.33-27.68-73.24-9,27.74,6.43,45.49,16.55,50.16-6.58-9.18-12.32-15.88-4.27-37-.33,24,15,33.06,30.21,32.77,14.18-.27,44-8.53,30.23-47.24C949.63,418.17,928.42,468.47,879,459.45Z"/><path class="cls-19" d="M188,774.05a17.32,17.32,0,0,1-11.5-4.16,13.43,13.43,0,0,1-4.75-10V491.37a13.45,13.45,0,0,1,4.77-10.07A17.33,17.33,0,0,1,188,477.16H905.59a17.32,17.32,0,0,1,11.49,4.16,13.43,13.43,0,0,1,4.76,10.05V759.84a13.4,13.4,0,0,1-4.76,10,17.32,17.32,0,0,1-11.49,4.16Z"/><path class="cls-20" d="M905.59,477.16a17.32,17.32,0,0,1,11.49,4.16,13.43,13.43,0,0,1,4.76,10.05V759.84a13.4,13.4,0,0,1-4.76,10,17.32,17.32,0,0,1-11.49,4.16H188a17.32,17.32,0,0,1-11.5-4.16,13.43,13.43,0,0,1-4.75-10V491.37a13.45,13.45,0,0,1,4.77-10.07A17.33,17.33,0,0,1,188,477.16H905.59m0-25H188a42.37,42.37,0,0,0-27.92,10.31,38.6,38.6,0,0,0-13.32,28.9V759.84A38.48,38.48,0,0,0,160,788.66a42.41,42.41,0,0,0,28,10.39H905.59a42.4,42.4,0,0,0,27.93-10.33,38.44,38.44,0,0,0,13.32-28.88V491.37a38.49,38.49,0,0,0-13.27-28.84,42.46,42.46,0,0,0-28-10.37Z"/><path class="cls-21" d="M243.64,616.55V516.76h15.57V731.91H243.64v-100H230.15v100H214.58V516.76h15.57v99.79Z"/><path class="cls-22" d="M290.35,677.74,287,731.91H271.27l5.05-76.1,11-139h21.28l11,138.83,5.05,76.32H308.88l-3.4-54.17Zm14.26-15.35-6.69-107.14-6.69,107.14Z"/><path class="cls-23" d="M364.92,731.91l-13.27-168v168h-15V516.76h21.17L370.4,698,383,516.76h21.16V731.91h-15v-168l-13.27,168Z"/><path class="cls-24" d="M421.72,516.76h23.9q20.73,0,20.73,22.59v70q0,10.53-8.56,14.91,8.56,4.39,8.56,15v70.07q0,22.47-21.71,22.59H421.72ZM437.29,532v84.55h4.82a15.35,15.35,0,0,0,4.5-.44c2.78-1.1,4.17-3.36,4.17-6.8v-70c0-4.89-2.23-7.35-6.69-7.35Zm0,99.9v84.66h6.8q6.69,0,6.69-7.24V639.25c0-3.44-1.39-5.7-4.17-6.8a12.27,12.27,0,0,0-4.5-.55Z"/><path class="cls-25" d="M527.43,711.4q0,22.59-22.38,22.7T482.8,711.4V516.76h15.57V711.4q0,7.35,6.68,7.35t6.8-7.35V516.76h15.58Z"/><path class="cls-26" d="M577.76,628.83l15.68,103.08h-17L563,631.79h-2.42V731.91H545V516.76h22.59q20.73,0,20.73,22.59V609.2Q588.29,623.24,577.76,628.83ZM560.54,532v84.44h3.51a15.35,15.35,0,0,0,4.5-.44c2.78-1.1,4.16-3.36,4.16-6.8V539.35c0-4.89-2.23-7.35-6.68-7.35Z"/><path class="cls-27" d="M649,616.55V711.4q0,22.59-22.38,22.7t-22.25-22.7V537.16q0-22.59,22.25-22.59T649,537.16V587.6H633.46V537.16q0-7.24-6.69-7.24h-.11c-4.45,0-6.69,2.41-6.69,7.24V711.4c0,4.9,2.24,7.35,6.69,7.35s6.8-2.45,6.8-7.35V631.9h-6.91V616.55Z"/><path class="cls-28" d="M710.11,711.4q0,22.59-22.37,22.7t-22.26-22.7V516.76h15.57V711.4q0,7.35,6.69,7.35t6.8-7.35V516.76h15.57Z"/><path class="cls-29" d="M727.66,516.76H767.9V532H743.23v84.55H764.5V631.9H743.23v84.66H767.9v15.35H727.66Z"/><path class="cls-30" d="M813.85,628.83l15.68,103.08h-17L799.05,631.79h-2.42V731.91H781.06V516.76h22.59q20.73,0,20.73,22.59V609.2Q824.38,623.24,813.85,628.83ZM796.63,532v84.44h3.51a15.35,15.35,0,0,0,4.5-.44c2.78-1.1,4.16-3.36,4.16-6.8V539.35c0-4.89-2.23-7.35-6.68-7.35Z"/><path class="cls-31" d="M855,661.18V711.4q0,7.35,6.8,7.35t6.69-7.35V646.49q0-7.8-14.48-18.21T839.4,603.06v-65.9q0-22.59,22.26-22.59T884,537.16V587.6H868.46V537.16q0-7.24-6.69-7.24h-.11q-6.69,0-6.69,7.24v65.57q0,7.24,14.47,17.66T884,645.17V711.4q0,22.71-22.26,22.7T839.4,711.4V661.18Z"/></g></g></svg>