<svg xmlns="http://www.w3.org/2000/svg" xmlns:xlink="http://www.w3.org/1999/xlink" viewBox="0 0 1080 1080"><defs><style>.cls-1{isolation:isolate;}.cls-2{fill:url(#linear-gradient);}.cls-3{fill:url(#linear-gradient-2);}.cls-4{fill:url(#linear-gradient-3);}.cls-10,.cls-11,.cls-12,.cls-5,.cls-8{mix-blend-mode:screen;}.cls-5{fill:url(#linear-gradient-4);}.cls-6{fill:url(#linear-gradient-5);}.cls-7{fill:url(#linear-gradient-6);}.cls-8{fill:url(#linear-gradient-7);}.cls-9{fill:url(#linear-gradient-8);}.cls-10{fill:url(#linear-gradient-9);}.cls-11{fill:url(#linear-gradient-10);}.cls-12{fill:url(#linear-gradient-11);}.cls-13{fill:url(#linear-gradient-12);}.cls-14{fill:url(#linear-gradient-13);}.cls-15{fill:url(#linear-gradient-14);}.cls-16{fill:url(#linear-gradient-15);}.cls-17{fill:url(#linear-gradient-16);}.cls-18{fill:url(#linear-gradient-17);}.cls-19{fill:url(#linear-gradient-18);}.cls-20{fill:url(#linear-gradient-19);}.cls-21{fill:url(#linear-gradient-20);}.cls-22{fill:url(#linear-gradient-21);}</style><linearGradient id="linear-gradient" x1="540.58" y1="314.73" x2="540.58" y2="460.7" gradientUnits="userSpaceOnUse"><stop offset="0" stop-color="#ff1f00"/><stop offset="1" stop-color="#fe0"/></linearGradient><linearGradient id="linear-gradient-2" x1="246.09" y1="341.45" x2="246.15" y2="341.81" xlink:href="#linear-gradient"/><linearGradient id="linear-gradient-3" x1="305.77" y1="294.05" x2="305.77" y2="449.97" xlink:href="#linear-gradient"/><linearGradient id="linear-gradient-4" x1="306.71" y1="382.34" x2="306.71" y2="453.73" gradientUnits="userSpaceOnUse"><stop offset="0"/><stop offset="1" stop-color="#ff8400"/></linearGradient><linearGradient id="linear-gradient-5" x1="526.37" y1="314.18" x2="526.44" y2="314.6" xlink:href="#linear-gradient"/><linearGradient id="linear-gradient-6" x1="682.09" y1="286.15" x2="682.09" y2="445.79" xlink:href="#linear-gradient"/><linearGradient id="linear-gradient-7" x1="596.63" y1="371.18" x2="596.63" y2="450.24" xlink:href="#linear-gradient-4"/><linearGradient id="linear-gradient-8" x1="443.84" y1="289.23" x2="443.84" y2="456.08" xlink:href="#linear-gradient"/><linearGradient id="linear-gradient-9" x1="443.87" y1="382.71" x2="443.87" y2="480.55" xlink:href="#linear-gradient-4"/><linearGradient id="linear-gradient-10" x1="746.99" y1="371.18" x2="746.99" y2="450.24" gradientTransform="matrix(-1, 0, 0, 1, 1445.63, 0)" xlink:href="#linear-gradient-4"/><linearGradient id="linear-gradient-11" x1="780.29" y1="408.22" x2="780.29" y2="467.68" xlink:href="#linear-gradient-4"/><linearGradient id="linear-gradient-12" x1="542.34" y1="778.25" x2="542.34" y2="462.64" gradientUnits="userSpaceOnUse"><stop offset="0"/><stop offset="0.16" stop-color="#0c0000"/><stop offset="0.46" stop-color="#2c0000"/><stop offset="0.85" stop-color="#5f0000"/><stop offset="1" stop-color="#750000"/></linearGradient><linearGradient id="linear-gradient-13" x1="542.34" y1="805.78" x2="542.34" y2="458.89" gradientUnits="userSpaceOnUse"><stop offset="0" stop-color="#ff1f00"/><stop offset="0.22" stop-color="#ff5700"/><stop offset="0.49" stop-color="#ff9700"/><stop offset="0.72" stop-color="#ffc600"/><stop offset="0.9" stop-color="#ffe300"/><stop offset="1" stop-color="#fe0"/></linearGradient><linearGradient id="linear-gradient-14" x1="345.93" y1="743.42" x2="345.93" y2="524" xlink:href="#linear-gradient-13"/><linearGradient id="linear-gradient-15" x1="405.86" y1="741.23" x2="405.86" y2="526.09" xlink:href="#linear-gradient-13"/><linearGradient id="linear-gradient-16" x1="468.8" y1="741.23" x2="468.8" y2="526.09" xlink:href="#linear-gradient-13"/><linearGradient id="linear-gradient-17" x1="526.31" y1="741.23" x2="526.31" y2="526.09" xlink:href="#linear-gradient-13"/><linearGradient id="linear-gradient-18" x1="586.24" y1="741.23" x2="586.24" y2="506.13" xlink:href="#linear-gradient-13"/><linearGradient id="linear-gradient-19" x1="646.61" y1="741.23" x2="646.61" y2="526.09" xlink:href="#linear-gradient-13"/><linearGradient id="linear-gradient-20" x1="692.5" y1="741.23" x2="692.5" y2="526.09" xlink:href="#linear-gradient-13"/><linearGradient id="linear-gradient-21" x1="739.6" y1="743.42" x2="739.6" y2="524" xlink:href="#linear-gradient-13"/></defs><g class="cls-1"><g id="Camada_1" data-name="Camada 1"><path class="cls-2" d="M806.59,367.42c11.87,18.92,13,31.91,6,48.69-4.4,10.54-14.06,11.29-22.45-.43-7-9.74,0-25.08,2.24-35.23,6.08-28.13,25.43-56.93-17.79-86.32,4.47,6.82,8.36,17.15,9.13,24.86,1.52,15.26-11.7,15.84-21,13.37-15.85-4.18-13.7-30.56-4.85-45.8-14.5,12.52-17.37,25.81-15,38.27C746,341.06,772,364.59,764.15,379c-12,21.89-25-2.65-17.34-27.23-4.34,7.15-10.89,22.62-9.84,30.56,1,7.23,13.15,22.51,2.75,32.91C723.94,431,706.9,420.66,705,399.42c-1.76-19.5,17-38.25,22.7-56.11,7.39-23.3,12.25-38.47-16.68-57.44,18.27,10.8,4.11,35.88-14.48,26.76-16.7-8.19-10.08-30.53,3.44-38.09-26.64,6.85-39.31,25.58-23.76,60.86,4.1,9.29,19.31,52.85-11.43,57.73C643.64,396.48,575,293.13,623.3,279c-54.63,12.68-49.9,40.17-47.8,65.85,2,23.9,50.73,80.48,2.31,80.48-23.93,0-12.78-39.13-16.41-59.71-3.95-22.42-10.41-27.79-28.59-41.6,10.85,15.11,6.05,34.5,1.21,49-1,3-2.11,6.28-3.2,9.64-12.1-27.6-33.21-56.76-24.43-87.08-20.77,23.6-22.82,51.33-14.16,70.78,5.79,13,34.92,68.91-2.84,68.91-34.92,0,15.11-42.47-26.3-75.36,4.9,8.36,11.21,35.42-2.09,35.42-29,0-18.68-52.24-14.53-61.64,15.55-35.28,2.89-54-23.75-60.86,13.52,7.56,20.14,29.9,3.43,38.1-18.58,9.11-32.74-16-14.47-26.77-28.94,19-24.08,34.15-16.69,57.44,5.67,17.86,24.47,36.61,22.7,56.1-1.93,21.26-26.61,28.55-38.54,9.7-16-25.32,30.63-72-36-88.94,25.48,12.27,11.08,35.66,4.7,54.47-.59,1.73-1.14,3.45-1.67,5.17C328.25,356.82,298,328,326.19,292.18c-29.11,9.39-40.67,53-35.71,74.64,2.89,12.65,41.72,66.24,0,66.24-20.65,0-11-29.47-14.16-47.23-3.41-19.34-9-24-24.68-35.9,9.37,13,5.23,29.78,1.05,42.32-8,23.87-12.26,47.16,7.07,69.13,8.88,10.1,22,13.48,35.73,13.28a106.06,106.06,0,0,0,35-3.21c10.36-2.58,18.13-6.48,23.78-11.39.69,1.11,1.33,2.21,2.07,3.33,18.24,27.61,60.36,28.36,82.1,28.53,40.52.3,71.39-12.1,87.83-32.94a42.74,42.74,0,0,0,6,8.94c10.3,11.71,35.49.86,51.38.63,13.31,1.15,26.73-.3,40.53-3.73a81.76,81.76,0,0,0,16.31-5.8,67.81,67.81,0,0,0,2.34,21.26c.79,2.8,21.29,9.81,21.25,12.34a176.89,176.89,0,0,0,20.18,1c20-.15,57.38-.86,77.39-22.62a22.2,22.2,0,0,1-2.3-9.4,66,66,0,0,0,18.11,3.73c31.27,2.44,43.87,7.87,54.63-13.65C843.22,429.38,822.24,383.64,806.59,367.42Z"/><path class="cls-3" d="M246.15,341.65l.17.13s-.07-.11-.11-.17C245.81,341.25,245.79,341.26,246.15,341.65Z"/><path class="cls-4" d="M278,471.11c-25.65-10.77-25.71-28.34-22.57-48.71,2.12-13.79,16.19-31.87,9.4-52.76,17.24,19.85-7.31,73.66,27.16,73.66,35.75,0,24.06-37.71,17.7-55.65-6.08-17.13-13.52-30-5.17-49.56-1,34.16,67.63,64.9,50.16,109.38C343.19,476.73,295.37,478.39,278,471.11Z"/><path class="cls-5" d="M263.78,414c4.18,54.32,60.6,48.07,60.6,3.13,0-10.38-8.36-24-9.41-47,6.27,24,30.23,40,35.53,58.51,4.91,17.18-8.63,37.79-37.61,41.79C282.59,474.64,254.38,465.23,263.78,414Z"/><path class="cls-6" d="M526.45,314.41l.19.15c0-.06-.08-.12-.13-.19C526.05,314,526,314,526.45,314.41Z"/><path class="cls-7" d="M821.15,408.21c-1,10.65-4.72,22.61-16.41,25.53-29.1,7.28-24.42-31.18-18.54-46.54,7.57-19.74,9.23-37,6.27-57.95-.63,14.31-23.49,28.75-31.59,11.84,2.17,5.82,5.66,10.31,8.65,15.63,5.73,10.23,6.82,22.3-.38,32.5-5.86,8.3-21.46,12.2-26.83-10.73,2.92,22.44,9.53,27.69,4.88,38.54-7.32,17.07-63.42,22.93-47.42-33.47,5.21-18.37,25.62-43.36,21.84-62.23-8.49,15.1-22.71,20.58-39.63-6.6,11.55,38.4,14.25,84.52-12.35,88.64-21,3.26-76.71-47.32-70.14-99.92-12.87,6.15-17.84,42.27-2.82,63.87,12.6,18.1,24.3,64.87-17.12,64.87-39.95,0-11.5-62.35-31.47-85.35C556,371.06,539.65,392,537.19,408c-3.63,23.61-3.56,44,26.17,56.44,16.77,7,111.66,24.13,117.68,24,32.12-.87,58.77-4.39,73.35-22.14,30.25,0,49.17.35,60.22-4.87C836.27,451.13,828.08,422.86,821.15,408.21Z"/><path class="cls-8" d="M546.88,398.29c4.84,63,70.21,55.69,70.21,3.63,0-12-9.69-27.83-10.89-54.47,7.26,27.84,35,46.33,41.16,67.8,5.69,19.9-10,43.79-43.58,48.42C568.67,468.52,536,457.62,546.88,398.29Z"/><path class="cls-9" d="M442.21,486.26c-50.18-1.36-87.14-9.07-85.33-67.63.45-14.46,4-27.93,9.63-41.24.37-.33.37-.32,0,0-14.9,67,82.19,70.92,56.93,4-6.74-17.87-25.62-43.36-21.83-62.23,8.48,15.1,24.12,19.94,39.63-6.61-17.93,36.81-4.72,99.1,14.41,98.58,7.3-.2,10.13.52,18.63-22.13,0,32.09-14.16,61.35,15.35,61,31.19-.36,28.77-39.7,22.4-62-4.24-14.82-30.2-34-11.33-63.24-9.44,23.6,15.92,42.05,22.66,54.74,6.27,11.84,9,34.18,6.6,46.25C524.31,454.16,512.05,488.15,442.21,486.26Z"/><path class="cls-10" d="M363.87,404.9c6.6,45.3,74.56,40.58,70.78-11.32,8.5,32.08,21.54,28.44,30.2,17-12.26,60.4,60.89,50.37,57.58,0,9.17,44-24.53,72.67-78.34,72.67C412.94,483.23,362,476.63,363.87,404.9Z"/><path class="cls-11" d="M758.79,412.43c-6.6,45.31-74.55,40.59-70.78-11.31-8.49,32.09-23.37,24-32,12.49,3,14.86,4.87,33.66-17.57,45.36,2,12.09,21.47,14.69,24.58,25.65a28.85,28.85,0,0,1,1,5.21,120,120,0,0,0,14.62.95C709.72,490.78,760.69,484.17,758.79,412.43Z"/><path class="cls-12" d="M795,440.35c-25.2-3.5-20-52.6-11.09-68-6.29,7.72-8.33,15.25-9.52,25-1.15,9.38-5.76,18.29-17,2.67,10.73,15.62,7.55,25.6,7.32,35.13-.27,10.88-5.86,26.82-21.46,27.31,12.5,11.32,69.75,11.71,74-30.76C809.74,441.47,802.4,441.38,795,440.35Z"/><path class="cls-13" d="M291.4,780.78a10.46,10.46,0,0,1-8-4.16,16,16,0,0,1-3.32-10V498.1A16.06,16.06,0,0,1,283.37,488a10.43,10.43,0,0,1,8-4.14H793.27a10.43,10.43,0,0,1,8,4.16,16,16,0,0,1,3.33,10.05V766.58a15.89,15.89,0,0,1-3.33,10,10.43,10.43,0,0,1-8,4.16Z"/><path class="cls-14" d="M793.27,483.89a10.43,10.43,0,0,1,8,4.16,16,16,0,0,1,3.33,10.05V766.58a15.89,15.89,0,0,1-3.33,10,10.43,10.43,0,0,1-8,4.16H291.4a10.46,10.46,0,0,1-8-4.16,16,16,0,0,1-3.32-10V498.1A16.06,16.06,0,0,1,283.37,488a10.43,10.43,0,0,1,8-4.14H793.27m0-25H291.4a35.26,35.26,0,0,0-27.54,13.51A41.32,41.32,0,0,0,255,498.1V766.58a41.17,41.17,0,0,0,8.76,25.6,35.29,35.29,0,0,0,27.61,13.6H793.27a35.29,35.29,0,0,0,27.55-13.53,41.13,41.13,0,0,0,8.82-25.67V498.1a41.19,41.19,0,0,0-8.78-25.63,35.32,35.32,0,0,0-27.59-13.58Z"/><path class="cls-15" d="M352.67,596.92V546.59q0-7.25-6.69-7.24h-.1q-6.69,0-6.69,7.24V720.72q0,7.35,6.69,7.35t6.79-7.35V670.5h15.58v50.22q0,22.6-22.37,22.7t-22.26-22.7V546.59q0-22.59,22.26-22.59t22.37,22.59v50.33Z"/><path class="cls-16" d="M398.29,687.06l-3.4,54.17H379.21l5.05-76.1,11-139H416.5l11,138.82,5,76.32H416.82l-3.4-54.17Zm14.26-15.35-6.69-107.14-6.69,107.14Z"/><path class="cls-17" d="M477.35,638.15,493,741.23H476L462.55,641.11h-2.41V741.23H444.57V526.09h22.58q20.73,0,20.73,22.58v69.85Q487.88,632.56,477.35,638.15Zm-17.21-96.82v84.43h3.51a14.93,14.93,0,0,0,4.49-.44q4.17-1.64,4.17-6.8V548.67q0-7.33-6.69-7.34Z"/><path class="cls-18" d="M504,526.09h23.9q20.73,0,20.73,22.58v170q0,22.47-21.71,22.59H504Zm15.57,15.24V725.88h6.8q6.69,0,6.69-7.24v-170q0-7.33-6.69-7.34Z"/><path class="cls-19" d="M578.68,687.06l-3.4,54.17H559.6l5-76.1,11-139h21.27l11,138.82,5,76.32H597.21l-3.4-54.17Zm9.54-167h-8.67l7.79-13.93h12.17Zm4.71,151.65-6.69-107.14-6.69,107.14Z"/><path class="cls-20" d="M625,526.09h22.59q20.73,0,20.73,22.58v69.85q0,16.68-14.92,21.49a36.27,36.27,0,0,1-10.3,1.1h-2.53V741.23H625Zm15.57,15.24v84.43H644a15,15,0,0,0,4.5-.44c2.78-1.09,4.16-3.36,4.16-6.8V548.67q0-7.33-6.68-7.34Z"/><path class="cls-21" d="M684.71,526.09h15.57V741.23H684.71Z"/><path class="cls-22" d="M761.91,720.72q0,22.6-22.37,22.7t-22.26-22.7V546.59q0-22.59,22.26-22.59t22.37,22.59ZM746.34,546.59q0-7.25-6.69-7.24h-.11q-6.69,0-6.69,7.24V720.72q0,7.35,6.69,7.35t6.8-7.35Z"/></g></g></svg>