<svg xmlns="http://www.w3.org/2000/svg" xmlns:xlink="http://www.w3.org/1999/xlink" viewBox="0 0 1080 1080"><defs><style>.cls-1{isolation:isolate;}.cls-2{fill:url(#linear-gradient);}.cls-3{fill:url(#linear-gradient-2);}.cls-4,.cls-7{mix-blend-mode:screen;}.cls-4{fill:url(#linear-gradient-3);}.cls-5{fill:url(#linear-gradient-4);}.cls-6{fill:url(#linear-gradient-5);}.cls-7{fill:url(#linear-gradient-6);}.cls-8{fill:url(#linear-gradient-7);}.cls-9{fill:url(#linear-gradient-8);}.cls-10{fill:url(#linear-gradient-9);}.cls-11{fill:url(#linear-gradient-10);}.cls-12{fill-rule:evenodd;fill:url(#linear-gradient-11);}</style><linearGradient id="linear-gradient" x1="541.61" y1="260.05" x2="541.61" y2="491.78" gradientUnits="userSpaceOnUse"><stop offset="0" stop-color="#ff1f00"/><stop offset="1" stop-color="#fe0"/></linearGradient><linearGradient id="linear-gradient-2" x1="466.44" y1="225.95" x2="466.44" y2="481.2" xlink:href="#linear-gradient"/><linearGradient id="linear-gradient-3" x1="466.85" y1="319.76" x2="466.85" y2="504.49" gradientUnits="userSpaceOnUse"><stop offset="0"/><stop offset="1" stop-color="#ff8400"/></linearGradient><linearGradient id="linear-gradient-4" x1="392.43" y1="258.53" x2="401.97" y2="318.57" xlink:href="#linear-gradient"/><linearGradient id="linear-gradient-5" x1="669.32" y1="225.94" x2="669.32" y2="481.2" xlink:href="#linear-gradient"/><linearGradient id="linear-gradient-6" x1="670.48" y1="318.11" x2="670.48" y2="507.1" xlink:href="#linear-gradient-3"/><linearGradient id="linear-gradient-7" x1="630.47" y1="266.96" x2="646.07" y2="365.22" xlink:href="#linear-gradient"/><linearGradient id="linear-gradient-8" x1="630.02" y1="251.4" x2="637.47" y2="346.89" xlink:href="#linear-gradient"/><linearGradient id="linear-gradient-9" x1="545.53" y1="839.37" x2="545.53" y2="469.47" gradientUnits="userSpaceOnUse"><stop offset="0"/><stop offset="0.16" stop-color="#0c0000"/><stop offset="0.46" stop-color="#2c0000"/><stop offset="0.85" stop-color="#5f0000"/><stop offset="1" stop-color="#750000"/></linearGradient><linearGradient id="linear-gradient-10" x1="545.53" y1="873.46" x2="545.53" y2="486.45" gradientUnits="userSpaceOnUse"><stop offset="0" stop-color="#ff1f00"/><stop offset="0.22" stop-color="#ff5700"/><stop offset="0.49" stop-color="#ff9700"/><stop offset="0.72" stop-color="#ffc600"/><stop offset="0.9" stop-color="#ffe300"/><stop offset="1" stop-color="#fe0"/></linearGradient><linearGradient id="linear-gradient-11" x1="544.9" y1="772.79" x2="544.9" y2="592.09" gradientUnits="userSpaceOnUse"><stop offset="0" stop-color="#fe0"/><stop offset="0.1" stop-color="#ffe600"/><stop offset="0.25" stop-color="#ffd100"/><stop offset="0.44" stop-color="#ffae00"/><stop offset="0.65" stop-color="#ff7e00"/><stop offset="0.88" stop-color="#ff4000"/><stop offset="1" stop-color="#ff1f00"/></linearGradient></defs><g class="cls-1"><g id="Camada_1" data-name="Camada 1"><path class="cls-2" d="M727,263.45c-44.37,1.88-89.4,87-78.6,156-5.41-34.2-28.28-60.43-58.2-75,15.05,17.19,13.25,35.82,7.13,56.1-7.53-57.58-34.43-110.49-34.43-110.49,12.38,61.93-22.53,84.47-22.53,84.47,3.38-150.91-125-170.07-125-170.07C498.65,241.64,467.12,343,467.12,343c1.12-37.17-16.88-94.61-57.43-107,34.53,18,24,54.06-4.51,106.62-14.06,25.9-25.52,49.54-22.51,81.08-12-34.54-17.28-52.18,2.24-89.72-68.69,59.68-109.24,210.6,77.71,210.6,63.14,0,242.11,9.19,280.54-36.32C797.7,443.63,654.05,308.63,727,263.45Z"/><path class="cls-3" d="M472.76,537.82c-47.38,2.88-159.92,0-109.25-154.28-2.24,42.79,14.65,40.54,32.67,79.21-9-112.61,49.55-88.59,45.79-168.18,21,30,23.72,75.72,15.77,106.62,27.94-23.95,61.56-108.1,25.68-149.63,50.89,46,50.89,119.6,35.88,175.15,31.54-3,54.06-34.54,57.06-63.06C604.89,500.28,522.3,534.82,472.76,537.82Z"/><path class="cls-4" d="M466.09,510.44c-54.8,0-80.33-16.51-91.59-66.81,21,32.29,37.62,37.05,51.06,39-34.54-34.53-4.5-98.35,15-126.12-1.14,21.43-12,57.81,15.76,87.83-3.74-53.31,57.82-60.82,50.31-136.63,17.27,65.3,5.82,116.62-9.75,138.89,21.76-3,45-9.77,62.31-33C544.93,493.18,501.38,510.44,466.09,510.44Z"/><path class="cls-5" d="M390.92,319c12.76-11.26,21.68-20.05,18.77-38.48-3.39-21.41-26.47-24.22-19.72-43.92-19.13,21.4-9.32,34.86,1.7,49.55C398.43,295.14,395.05,311.09,390.92,319Z"/><path class="cls-6" d="M600.35,514.86c-17.6-53.72,34.8-87.6,13.19-130.8,23,11.18,35.41,39.6,39,73.21-3.6-64.82,16.8-114.62,49.2-130.81-30.61,57.6,69.93,139.46,31.2,186.6C705.34,546.65,611.75,549.65,600.35,514.86Z"/><path class="cls-7" d="M614.16,512.06c-12.72-38.51,26.88-60.23,11.39-91.21,18.6,10.2,28.8,24.6,33.61,57-3-36-7.81-85.2,25.19-133.2-17.39,61.81,65.4,114,40.21,160.8C709,534.32,623.17,539.4,614.16,512.06Z"/><path class="cls-8" d="M641,363.82c-35.55-30.16-39.31-57.07-36.57-74,1.61-10,6.45-17.06,13.11-24.47C609.8,275.92,619,289,622.93,299c-5.87-11.2,5.84-25.91,11-35.6,6.9-12.86,6.2-20.22,2.57-33.92,20.7,13.88,32.07,35.65,25.17,60.61C656.59,308.6,635.59,326.46,641,363.82Z"/><path class="cls-9" d="M614,295.11c1.78,11.1,8.53,19.1,15.21,22.27-7.75-23.34,7.93-30.92,18.09-49,2.41-4.32,4.13-9.71,3.57-14.67,2.37,14.7,5.85,18.31,3.6,33.16-2.27,15.09-24.14,46.8-18,65.25C627.49,344.46,603.19,318.81,614,295.11Z"/><path class="cls-10" d="M506.89,844.6H395A15.15,15.15,0,0,1,385,841a11.31,11.31,0,0,1-4.14-8.56V527.43a11.31,11.31,0,0,1,4.14-8.57,15.2,15.2,0,0,1,10-3.56H696.09a15.19,15.19,0,0,1,10,3.56,11.35,11.35,0,0,1,4.14,8.57V832.48a11.34,11.34,0,0,1-4.14,8.56,15.13,15.13,0,0,1-10,3.56H506.89Z"/><path class="cls-11" d="M696.09,515.3a15.19,15.19,0,0,1,10,3.56,11.35,11.35,0,0,1,4.14,8.57V832.48a11.34,11.34,0,0,1-4.14,8.56,15.13,15.13,0,0,1-10,3.56H395A15.15,15.15,0,0,1,385,841a11.31,11.31,0,0,1-4.14-8.56V527.43a11.31,11.31,0,0,1,4.14-8.57,15.2,15.2,0,0,1,10-3.56H696.09m0-28.85H395a44.23,44.23,0,0,0-28.7,10.45A40.27,40.27,0,0,0,352,527.43V832.48a40.21,40.21,0,0,0,14.18,30.45A44.19,44.19,0,0,0,395,873.46H696.09a44.11,44.11,0,0,0,28.78-10.53,40.18,40.18,0,0,0,14.19-30.45V527.43A40.18,40.18,0,0,0,724.86,497a44.2,44.2,0,0,0-28.77-10.51Z"/><path class="cls-12" d="M632.74,720.25c-4.87-2.38-28.47-14-32.87-15.51s-7.63-2.39-10.84,2.38-12.48,15.52-15.24,18.64-5.6,3.58-10.46,1.19-20.29-7.34-38.66-23.68c-14.23-12.58-24-28.19-26.71-33s-.28-7.35,2.11-9.73c2.2-2.2,4.77-5.6,7.25-8.36.65-.83,1.19-1.56,1.74-2.29a51.91,51.91,0,0,0,3-5.7c1.66-3.21.83-6-.36-8.35S500.89,610,496.85,600.44s-8-7.9-10.83-7.9-6-.45-9.18-.45a17.77,17.77,0,0,0-12.85,6c-4.41,4.78-16.8,16.35-16.8,39.85a60.9,60.9,0,0,0,2.47,16.25c4.87,16.8,15.34,30.66,17.18,33.05,2.38,3.12,33.23,52.88,82.07,72.07,48.93,19,48.93,12.67,57.75,11.85s28.47-11.48,32.41-22.68,4-20.66,2.84-22.68S637.5,722.64,632.74,720.25Z"/></g></g></svg>