<svg xmlns="http://www.w3.org/2000/svg" xmlns:xlink="http://www.w3.org/1999/xlink" viewBox="0 0 1080 1080"><defs><style>.cls-1{isolation:isolate;}.cls-2{fill:url(#linear-gradient);}.cls-3{fill:url(#linear-gradient-2);}.cls-4{fill:url(#linear-gradient-3);}.cls-5{fill:url(#linear-gradient-4);}.cls-11,.cls-6{mix-blend-mode:screen;}.cls-6{fill:url(#linear-gradient-5);}.cls-7{fill:url(#linear-gradient-6);}.cls-8{fill:url(#radial-gradient);}.cls-9{fill:url(#linear-gradient-7);}.cls-10{fill:url(#linear-gradient-8);}.cls-11{fill:url(#linear-gradient-9);}.cls-12{fill-rule:evenodd;fill:url(#linear-gradient-10);}</style><linearGradient id="linear-gradient" x1="563.39" y1="285.74" x2="563.46" y2="286.18" gradientUnits="userSpaceOnUse"><stop offset="0" stop-color="#ff1f00"/><stop offset="1" stop-color="#fe0"/></linearGradient><linearGradient id="linear-gradient-2" x1="541.88" y1="313.35" x2="541.88" y2="507.04" xlink:href="#linear-gradient"/><linearGradient id="linear-gradient-3" x1="540.79" y1="262.76" x2="540.79" y2="505.25" xlink:href="#linear-gradient"/><linearGradient id="linear-gradient-4" x1="653.06" y1="423.36" x2="653.06" y2="424.46" gradientUnits="userSpaceOnUse"><stop offset="0"/><stop offset="1" stop-color="#ff8400"/></linearGradient><linearGradient id="linear-gradient-5" x1="545.28" y1="329.92" x2="545.28" y2="418.92" xlink:href="#linear-gradient-4"/><linearGradient id="linear-gradient-6" x1="541.61" y1="487.78" x2="541.61" y2="862.3" gradientUnits="userSpaceOnUse"><stop offset="0" stop-color="#fe0"/><stop offset="0.1" stop-color="#ffe600"/><stop offset="0.25" stop-color="#ffd100"/><stop offset="0.44" stop-color="#ffae00"/><stop offset="0.65" stop-color="#ff7e00"/><stop offset="0.88" stop-color="#ff4000"/><stop offset="1" stop-color="#ff1f00"/></linearGradient><radialGradient id="radial-gradient" cx="541.61" cy="651.74" r="181.41" gradientTransform="translate(1052.05 -24.68) rotate(76.77)" gradientUnits="userSpaceOnUse"><stop offset="0"/><stop offset="0.28" stop-color="#030000"/><stop offset="0.47" stop-color="#0c0000"/><stop offset="0.63" stop-color="#1b0000"/><stop offset="0.77" stop-color="#300000"/><stop offset="0.91" stop-color="#4b0000"/><stop offset="1" stop-color="#630000"/></radialGradient><linearGradient id="linear-gradient-7" x1="634.4" y1="244.35" x2="634.4" y2="328.89" xlink:href="#linear-gradient"/><linearGradient id="linear-gradient-8" x1="636.91" y1="241.47" x2="636.91" y2="313.41" xlink:href="#linear-gradient"/><linearGradient id="linear-gradient-9" x1="635.54" y1="281.85" x2="635.54" y2="322.04" xlink:href="#linear-gradient-4"/><linearGradient id="linear-gradient-10" x1="545.28" y1="739.15" x2="545.28" y2="558.45" xlink:href="#linear-gradient-6"/></defs><g class="cls-1"><g id="Camada_1" data-name="Camada 1"><path class="cls-2" d="M563.54,286.05l.11.09a.38.38,0,0,1-.06-.13C563.05,285.47,563,285.48,563.54,286.05Z"/><path class="cls-3" d="M700.47,526.69a114.38,114.38,0,0,0-15.86-8.5c-33.26-15.25-85.05-25-143.24-25C483,493.18,431,503,397.74,518.37a121.47,121.47,0,0,0-15.16,8.15C359.76,460.27,409.79,425.61,432.7,363c5.57-15.17,10.61-38.13,4.12-53.29,17.66,25.16,28.36,50.74,27.87,80,2.33-45.79,39-93.81,29.19-140.52-2.24-10.38-5.92-18.58-12.75-25.72,36.19,33.3,84.42,95.74,87.23,142.71,9.29-26.86,18.36-53.23,5.22-78.38,30.46,23.92,37.22,41.86,45.95,88.06,4.21-28.65,21.92-50.74,47.2-62C610.29,355.15,736.35,426.44,700.47,526.69Z"/><path class="cls-4" d="M684.61,518.19a214.45,214.45,0,0,0-32.16-11.48c-30.72-8.5-69.24-13.53-111.08-13.53-36.1,0-69.8,3.76-98.06,10.25-17.44,4-32.86,9.06-45.57,14.94-13.36-32.16,7.76-91.14,21.6-111.87,8.06-12,18-22.91,26.42-34.66-2.48,21.52,9.87,56.49,29.85,68-17.44-44.48,28.38-85.54,29.92-128.65,17.05,42.41,66.21,60.33,77.77,108.88,10.66-13.36,10.12-34.61,6.84-50.47,13.63,21.77,29.39,38.2,47,55.91.62-16,3.59-36.9-1.31-49.34C671.29,414.87,697.93,474.77,684.61,518.19Z"/><path class="cls-5" d="M653.1,424.34v.26a.61.61,0,0,0-.08-.26C653.06,423.24,653.1,423.24,653.1,424.34Z"/><path class="cls-6" d="M648.08,489.27c-30.71-8.5-69.23-13.54-111.07-13.54-36.1,0-69.8,3.77-98.06,10.26-10.78-23.54-8.85-61-4.9-77.65,3.5,28.79,33.87,48.68,61.16,52.23-25.76-36.54,7.45-82,17.66-117.21,22.17,33.26,51.26,58,67.52,95.74,10.61-10.08,13.5-26.42,14.29-40.62,12.92,13.1,26.63,33.3,32.38,50.83,14.19-8.11,23-25.54,21.68-42.16C664.56,443.88,662.15,470.65,648.08,489.27Z"/><path class="cls-7" d="M747.43,651.74c0,113.68-92.15,205.82-205.83,205.82S335.78,765.42,335.78,651.74,427.93,445.92,541.6,445.92,747.43,538.07,747.43,651.74Z"/><circle class="cls-8" cx="541.61" cy="651.74" r="181.41" transform="translate(-216.81 1029.77) rotate(-76.77)"/><path class="cls-9" d="M633.36,327c26.88-30.4,25.11-69.41-7.38-86.4C637.3,271.13,594.59,293.78,633.36,327Z"/><path class="cls-10" d="M633,325c-17.92-17.91,1.13-56,1.87-67.79C651.09,266.09,655.59,300,633,325Z"/><path class="cls-11" d="M632.86,324.56c-7.8-11.41-4.68-23.84-.23-35.58,1.45-3.84,3.06-10.14,1.65-15.79,11.08,12.49,11,28.89,3.15,42.48A47.85,47.85,0,0,0,633.1,325Z"/><path class="cls-12" d="M633.12,686.61c-4.86-2.38-28.46-14-32.87-15.51s-7.62-2.39-10.83,2.38S576.93,689,574.17,692.12s-5.59,3.58-10.46,1.19-20.29-7.34-38.65-23.69c-14.23-12.57-24-28.18-26.72-33s-.27-7.35,2.12-9.73c2.2-2.2,4.77-5.6,7.24-8.36.65-.83,1.2-1.56,1.75-2.29a53.68,53.68,0,0,0,3-5.7c1.65-3.21.83-6-.36-8.35s-10.84-25.89-14.88-35.44-8-7.9-10.83-7.9-6-.45-9.18-.45a17.79,17.79,0,0,0-12.86,6c-4.4,4.78-16.8,16.35-16.8,39.85a60.51,60.51,0,0,0,2.48,16.25c4.87,16.8,15.33,30.66,17.17,33,2.38,3.12,33.24,52.88,82.08,72.07,48.93,19,48.93,12.67,57.75,11.85s28.46-11.48,32.4-22.68,4-20.66,2.85-22.68S637.89,689,633.12,686.61Z"/></g></g></svg>