<svg xmlns="http://www.w3.org/2000/svg" xmlns:xlink="http://www.w3.org/1999/xlink" viewBox="0 0 1080 1080"><defs><style>.cls-1{isolation:isolate;}.cls-2{fill:url(#linear-gradient);}.cls-3{fill:url(#linear-gradient-2);}.cls-4,.cls-7{mix-blend-mode:screen;}.cls-4{fill:url(#linear-gradient-3);}.cls-5{fill:url(#linear-gradient-4);}.cls-6{fill:url(#linear-gradient-5);}.cls-7{fill:url(#linear-gradient-6);}.cls-8{fill:url(#linear-gradient-7);}.cls-9{fill:url(#linear-gradient-8);}.cls-10{fill:url(#linear-gradient-9);}.cls-11{fill:url(#linear-gradient-10);}.cls-12{fill:url(#linear-gradient-11);}</style><linearGradient id="linear-gradient" x1="540.83" y1="262.96" x2="540.83" y2="494.7" gradientUnits="userSpaceOnUse"><stop offset="0" stop-color="#ff1f00"/><stop offset="1" stop-color="#fe0"/></linearGradient><linearGradient id="linear-gradient-2" x1="465.66" y1="228.86" x2="465.66" y2="484.11" xlink:href="#linear-gradient"/><linearGradient id="linear-gradient-3" x1="466.07" y1="322.67" x2="466.07" y2="507.4" gradientUnits="userSpaceOnUse"><stop offset="0"/><stop offset="1" stop-color="#ff8400"/></linearGradient><linearGradient id="linear-gradient-4" x1="391.65" y1="261.44" x2="401.19" y2="321.49" xlink:href="#linear-gradient"/><linearGradient id="linear-gradient-5" x1="668.54" y1="228.86" x2="668.54" y2="484.11" xlink:href="#linear-gradient"/><linearGradient id="linear-gradient-6" x1="669.7" y1="321.02" x2="669.7" y2="510.01" xlink:href="#linear-gradient-3"/><linearGradient id="linear-gradient-7" x1="629.69" y1="269.88" x2="645.29" y2="368.14" xlink:href="#linear-gradient"/><linearGradient id="linear-gradient-8" x1="629.25" y1="254.31" x2="636.69" y2="349.8" xlink:href="#linear-gradient"/><linearGradient id="linear-gradient-9" x1="544.75" y1="842.28" x2="544.75" y2="472.38" gradientUnits="userSpaceOnUse"><stop offset="0"/><stop offset="0.16" stop-color="#0c0000"/><stop offset="0.46" stop-color="#2c0000"/><stop offset="0.85" stop-color="#5f0000"/><stop offset="1" stop-color="#750000"/></linearGradient><linearGradient id="linear-gradient-10" x1="544.75" y1="876.37" x2="544.75" y2="489.36" gradientUnits="userSpaceOnUse"><stop offset="0" stop-color="#ff1f00"/><stop offset="0.22" stop-color="#ff5700"/><stop offset="0.49" stop-color="#ff9700"/><stop offset="0.72" stop-color="#ffc600"/><stop offset="0.9" stop-color="#ffe300"/><stop offset="1" stop-color="#fe0"/></linearGradient><linearGradient id="linear-gradient-11" x1="545.13" y1="791.94" x2="545.13" y2="576.53" gradientUnits="userSpaceOnUse"><stop offset="0" stop-color="#fe0"/><stop offset="0.1" stop-color="#ffe600"/><stop offset="0.25" stop-color="#ffd100"/><stop offset="0.44" stop-color="#ffae00"/><stop offset="0.65" stop-color="#ff7e00"/><stop offset="0.88" stop-color="#ff4000"/><stop offset="1" stop-color="#ff1f00"/></linearGradient></defs><g class="cls-1"><g id="Camada_1" data-name="Camada 1"><path class="cls-2" d="M726.17,266.37c-44.36,1.88-89.4,87-78.6,156-5.41-34.21-28.27-60.44-58.2-75,15,17.2,13.25,35.82,7.13,56.1C589,345.9,562.07,293,562.07,293c12.38,61.93-22.52,84.47-22.52,84.47,3.37-150.91-125-170.06-125-170.06,83.34,37.17,51.81,138.53,51.81,138.53,1.12-37.16-16.89-94.61-57.44-107,34.54,18,24,54.05-4.51,106.61-14,25.9-25.52,49.54-22.51,81.08-12-34.54-17.27-52.18,2.24-89.72-68.69,59.68-109.23,210.6,77.71,210.6,63.14,0,242.11,9.19,280.54-36.32C796.93,446.54,653.27,311.54,726.17,266.37Z"/><path class="cls-3" d="M472,540.73c-47.38,2.88-159.92,0-109.24-154.28-2.25,42.79,14.64,40.54,32.66,79.21-9-112.61,49.55-88.59,45.79-168.18,21,30,23.72,75.72,15.77,106.62,28-23.94,61.56-108.1,25.68-149.63,50.89,46,50.89,119.6,35.88,175.15,31.54-3,54.06-34.54,57.06-63.06C604.11,503.19,521.53,537.73,472,540.73Z"/><path class="cls-4" d="M465.31,513.35c-54.8,0-80.33-16.51-91.59-66.81,21,32.29,37.62,37,51.06,39-34.53-34.53-4.5-98.35,15-126.12-1.13,21.44-12,57.81,15.77,87.83-3.75-53.31,57.81-60.82,50.3-136.63,17.27,65.3,5.82,116.63-9.75,138.9,21.76-3,45-9.78,62.31-33.05C544.15,496.09,500.6,513.35,465.31,513.35Z"/><path class="cls-5" d="M390.14,321.89c12.76-11.25,21.68-20.05,18.77-38.48-3.38-21.4-26.47-24.22-19.71-43.92-19.14,21.4-9.33,34.86,1.69,49.55C397.65,298.05,394.27,314,390.14,321.89Z"/><path class="cls-6" d="M599.57,517.77c-17.6-53.72,34.8-87.6,13.2-130.8,23,11.19,35.4,39.6,39,73.21-3.6-64.81,16.8-114.61,49.2-130.81C670.36,387,770.9,468.83,732.18,516,704.57,549.57,611,552.57,599.57,517.77Z"/><path class="cls-7" d="M613.38,515c-12.72-38.51,26.88-60.23,11.4-91.21,18.6,10.2,28.79,24.6,33.6,57-3-36-7.8-85.2,25.19-133.19-17.39,61.8,65.4,114,40.21,160.79C708.23,537.23,622.4,542.31,613.38,515Z"/><path class="cls-8" d="M640.22,366.73c-35.55-30.16-39.3-57.07-36.57-74,1.61-10,6.45-17.06,13.11-24.46-7.74,10.61,1.51,23.71,5.39,33.63-5.86-11.2,5.84-25.91,11-35.6,6.9-12.86,6.2-20.22,2.58-33.91,20.69,13.87,32.06,35.64,25.16,60.6C655.81,311.51,634.82,329.37,640.22,366.73Z"/><path class="cls-9" d="M613.24,298c1.78,11.09,8.54,19.09,15.21,22.27-7.75-23.35,7.93-30.93,18.09-49,2.42-4.32,4.13-9.7,3.58-14.67,2.36,14.7,5.84,18.32,3.6,33.17-2.28,15.08-24.15,46.79-18,65.25C626.71,347.37,602.42,321.72,613.24,298Z"/><path class="cls-10" d="M506.11,847.51H394.18a15.23,15.23,0,0,1-10-3.55,11.38,11.38,0,0,1-4.14-8.57v-305a11.37,11.37,0,0,1,4.14-8.57,15.23,15.23,0,0,1,10-3.55H695.31a15.19,15.19,0,0,1,10,3.55,11.33,11.33,0,0,1,4.14,8.57v305a11.35,11.35,0,0,1-4.14,8.57,15.19,15.19,0,0,1-10,3.55H506.11Z"/><path class="cls-11" d="M695.31,518.22a15.19,15.19,0,0,1,10,3.55,11.33,11.33,0,0,1,4.14,8.57v305a11.35,11.35,0,0,1-4.14,8.57,15.19,15.19,0,0,1-10,3.55H394.18a15.23,15.23,0,0,1-10-3.55,11.38,11.38,0,0,1-4.14-8.57v-305a11.37,11.37,0,0,1,4.14-8.57,15.23,15.23,0,0,1,10-3.55H695.31m0-28.86H394.18a44.23,44.23,0,0,0-28.7,10.45,40.27,40.27,0,0,0-14.26,30.53v305a40.21,40.21,0,0,0,14.18,30.45,44.19,44.19,0,0,0,28.78,10.53H695.31a44.15,44.15,0,0,0,28.78-10.52,40.22,40.22,0,0,0,14.19-30.46v-305a40.21,40.21,0,0,0-14.19-30.47,44.23,44.23,0,0,0-28.78-10.51Z"/><path class="cls-12" d="M545.13,595.93c28.76,0,32.17.11,43.52.63,10.5.48,16.21,2.23,20,3.71a35.72,35.72,0,0,1,20.44,20.44c1.47,3.8,3.22,9.5,3.7,20,.52,11.36.63,14.76.63,43.52s-.11,32.17-.63,43.53c-.48,10.5-2.23,16.2-3.7,20a35.72,35.72,0,0,1-20.44,20.44c-3.8,1.47-9.51,3.23-20,3.71-11.35.51-14.76.62-43.52.62s-32.16-.11-43.52-.62c-10.5-.48-16.2-2.24-20-3.71a35.72,35.72,0,0,1-20.44-20.44c-1.48-3.8-3.23-9.5-3.71-20-.52-11.36-.63-14.77-.63-43.53s.11-32.16.63-43.52c.48-10.5,2.23-16.2,3.71-20a35.72,35.72,0,0,1,20.44-20.44c3.8-1.48,9.5-3.23,20-3.71,11.36-.52,14.76-.63,43.52-.63m0-19.4c-29.25,0-32.92.12-44.41.65s-19.29,2.34-26.14,5a55,55,0,0,0-31.5,31.5c-2.66,6.85-4.48,14.68-5,26.15s-.65,15.15-.65,44.4.12,32.92.65,44.41,2.34,19.29,5,26.15a55.11,55.11,0,0,0,31.5,31.5c6.85,2.66,14.68,4.48,26.14,5s15.16.65,44.41.65,32.92-.12,44.41-.65,19.29-2.34,26.14-5a55.11,55.11,0,0,0,31.5-31.5c2.67-6.86,4.49-14.68,5-26.15s.65-15.15.65-44.41-.13-32.91-.65-44.4-2.34-19.3-5-26.15a55,55,0,0,0-31.5-31.5c-6.85-2.66-14.68-4.48-26.14-5s-15.16-.65-44.41-.65m0,52.4a55.31,55.31,0,1,0,55.31,55.3,55.31,55.31,0,0,0-55.31-55.3m0,91.21A35.91,35.91,0,1,1,581,684.23a35.9,35.9,0,0,1-35.9,35.91m70.42-93.4a12.93,12.93,0,1,0-12.92,12.93,12.92,12.92,0,0,0,12.92-12.93"/></g></g></svg>