<svg xmlns="http://www.w3.org/2000/svg" xmlns:xlink="http://www.w3.org/1999/xlink" viewBox="0 0 1080 1080"><defs><style>.cls-1{isolation:isolate;}.cls-2{fill:url(#linear-gradient);}.cls-3{fill:url(#linear-gradient-2);}.cls-4{fill:url(#linear-gradient-3);}.cls-5{fill:url(#linear-gradient-4);}.cls-11,.cls-6{mix-blend-mode:screen;}.cls-6{fill:url(#linear-gradient-5);}.cls-7{fill:url(#linear-gradient-6);}.cls-8{fill:url(#radial-gradient);}.cls-9{fill:url(#linear-gradient-7);}.cls-10{fill:url(#linear-gradient-8);}.cls-11{fill:url(#linear-gradient-9);}.cls-12{fill:url(#linear-gradient-10);}</style><linearGradient id="linear-gradient" x1="566.52" y1="288.35" x2="566.59" y2="288.79" gradientUnits="userSpaceOnUse"><stop offset="0" stop-color="#ff1f00"/><stop offset="1" stop-color="#fe0"/></linearGradient><linearGradient id="linear-gradient-2" x1="545.01" y1="315.96" x2="545.01" y2="509.65" xlink:href="#linear-gradient"/><linearGradient id="linear-gradient-3" x1="543.92" y1="265.37" x2="543.92" y2="507.86" xlink:href="#linear-gradient"/><linearGradient id="linear-gradient-4" x1="656.19" y1="425.97" x2="656.19" y2="427.08" gradientUnits="userSpaceOnUse"><stop offset="0"/><stop offset="1" stop-color="#ff8400"/></linearGradient><linearGradient id="linear-gradient-5" x1="548.41" y1="332.53" x2="548.41" y2="421.53" xlink:href="#linear-gradient-4"/><linearGradient id="linear-gradient-6" x1="544.74" y1="490.39" x2="544.74" y2="864.91" gradientUnits="userSpaceOnUse"><stop offset="0" stop-color="#fe0"/><stop offset="0.1" stop-color="#ffe600"/><stop offset="0.25" stop-color="#ffd100"/><stop offset="0.44" stop-color="#ffae00"/><stop offset="0.65" stop-color="#ff7e00"/><stop offset="0.88" stop-color="#ff4000"/><stop offset="1" stop-color="#ff1f00"/></linearGradient><radialGradient id="radial-gradient" cx="544.74" cy="654.35" r="181.41" gradientTransform="translate(1057.01 -25.71) rotate(76.77)" gradientUnits="userSpaceOnUse"><stop offset="0"/><stop offset="0.28" stop-color="#030000"/><stop offset="0.47" stop-color="#0c0000"/><stop offset="0.63" stop-color="#1b0000"/><stop offset="0.77" stop-color="#300000"/><stop offset="0.91" stop-color="#4b0000"/><stop offset="1" stop-color="#630000"/></radialGradient><linearGradient id="linear-gradient-7" x1="637.53" y1="246.96" x2="637.53" y2="331.5" xlink:href="#linear-gradient"/><linearGradient id="linear-gradient-8" x1="640.04" y1="244.08" x2="640.04" y2="316.02" xlink:href="#linear-gradient"/><linearGradient id="linear-gradient-9" x1="638.67" y1="284.46" x2="638.67" y2="324.65" xlink:href="#linear-gradient-4"/><linearGradient id="linear-gradient-10" x1="545.01" y1="758.35" x2="545.01" y2="550.35" xlink:href="#linear-gradient-6"/></defs><g class="cls-1"><g id="Camada_1" data-name="Camada 1"><path class="cls-2" d="M566.67,288.66l.11.09a.38.38,0,0,1-.06-.13C566.18,288.08,566.16,288.09,566.67,288.66Z"/><path class="cls-3" d="M703.6,529.3a114.38,114.38,0,0,0-15.86-8.5c-33.26-15.25-85-25-143.24-25-58.41,0-110.37,9.85-143.63,25.19a121.47,121.47,0,0,0-15.16,8.15c-22.82-66.25,27.21-100.91,50.12-163.52,5.57-15.17,10.61-38.13,4.12-53.29,17.66,25.16,28.36,50.74,27.87,80,2.33-45.79,39-93.81,29.19-140.52-2.24-10.38-5.92-18.58-12.75-25.72,36.19,33.3,84.42,95.74,87.24,142.71,9.28-26.86,18.35-53.23,5.21-78.38,30.46,23.92,37.22,41.86,45.95,88.07,4.21-28.66,21.92-50.75,47.2-62.05C613.42,357.77,739.48,429.05,703.6,529.3Z"/><path class="cls-4" d="M687.74,520.8a214.45,214.45,0,0,0-32.16-11.48c-30.72-8.5-69.24-13.53-111.08-13.53-36.1,0-69.8,3.76-98.06,10.25-17.44,4-32.86,9.06-45.57,14.94-13.36-32.16,7.76-91.14,21.6-111.86,8.06-12,18-22.92,26.42-34.67-2.48,21.52,9.87,56.49,29.85,68-17.44-44.48,28.38-85.54,29.92-128.65,17.05,42.42,66.21,60.33,77.77,108.88,10.66-13.36,10.13-34.61,6.84-50.47,13.63,21.77,29.39,38.2,47,55.91.62-16,3.59-36.9-1.31-49.34C674.42,417.48,701.06,477.38,687.74,520.8Z"/><path class="cls-5" d="M656.23,427v.26a.61.61,0,0,0-.08-.26C656.19,425.85,656.23,425.85,656.23,427Z"/><path class="cls-6" d="M651.21,491.88c-30.71-8.5-69.23-13.54-111.07-13.54-36.1,0-69.8,3.77-98.06,10.26-10.78-23.54-8.85-61-4.9-77.65,3.5,28.79,33.87,48.68,61.16,52.23-25.76-36.54,7.45-82,17.66-117.21,22.17,33.26,51.26,58,67.52,95.74,10.61-10.08,13.5-26.42,14.29-40.62,12.92,13.1,26.63,33.3,32.38,50.83,14.19-8.11,23-25.54,21.68-42.15C667.69,446.49,665.28,473.26,651.21,491.88Z"/><path class="cls-7" d="M750.56,654.35c0,113.68-92.15,205.82-205.82,205.82S338.91,768,338.91,654.35s92.15-205.82,205.83-205.82S750.56,540.68,750.56,654.35Z"/><circle class="cls-8" cx="544.74" cy="654.35" r="181.41" transform="translate(-216.94 1034.83) rotate(-76.77)"/><path class="cls-9" d="M636.49,329.62c26.88-30.4,25.11-69.41-7.38-86.4C640.44,273.75,597.72,296.39,636.49,329.62Z"/><path class="cls-10" d="M636.1,327.62c-17.92-17.91,1.13-56,1.87-67.78C654.22,268.7,658.72,302.64,636.1,327.62Z"/><path class="cls-11" d="M636,327.17c-7.8-11.41-4.68-23.84-.23-35.58,1.45-3.84,3.06-10.13,1.65-15.79,11.08,12.49,11,28.89,3.15,42.48a47.85,47.85,0,0,0-4.33,9.36Z"/><path class="cls-12" d="M563.65,620.9V571.4h11v45.4c0,2.38.57,4,2.93,4,2.15,0,5.13-2.75,6.48-4.43V571.41h11v59.21h-11v-6.54c-4.78,5.67-9.4,7.4-12.73,7.4C565.44,631.48,563.65,626.74,563.65,620.9Zm-41.31-34.07c0-9.51,6.43-15.91,16.14-15.91a15.46,15.46,0,0,1,15.82,15.91v29c0,9.95-7,15.87-15.82,15.87-10.68,0-16.14-5.44-16.14-15.87Zm11.33,28.52c0,3.12,1.77,5.6,4.81,5.6s4.6-2.37,4.6-5.6V587.8c0-3.31-1.44-5.65-4.82-5.65-3.09,0-4.59,2.41-4.59,5.65Zm-37.59,15.27h12.4V598.06l14.42-47.71H510.31l-7.94,32.08-8.56-32.08H481.33l14.75,47.71Zm139.06,38.72v63.77a25.23,25.23,0,0,1-25.24,25.24H480.13a25.23,25.23,0,0,1-25.24-25.24V669.34a25.25,25.25,0,0,1,25.24-25.25H609.9A25.25,25.25,0,0,1,635.14,669.34Zm-137.72,4.77h12.22V663H473.39v11.1h12.23v65.35h11.8Zm42,9H528.94v42.8c-1.28,1.6-4.13,4.22-6.17,4.22-2.24,0-2.79-1.53-2.79-3.8V683.07H509.49V730.2c0,11.45,7.76,11.51,13.41,8.28a23.23,23.23,0,0,0,6-5.24v6.22h10.48Zm40.36,13.42c0-7.65-2.55-14.13-10.23-14.13-3.74,0-6.95,2.38-9.32,5.26V663H549.65v76.45h10.58v-4.33c2.93,3.64,6.13,5,10,5,7,0,9.58-5.42,9.58-12.39Zm38.76,1.74c0-10.2-4.87-16.59-14.93-16.59-9.46,0-15.92,6.79-15.92,16.59v25.32c0,10.14,5.12,17.44,15.13,17.44,11,0,15.72-6.58,15.72-17.44v-4.24H607.75v3.92c0,4.9-.26,7.88-4.69,7.88-4.22,0-4.58-3.65-4.58-7.88V712.59h20.06Zm-15.37-6.71c-3.89,0-4.69,2.73-4.69,6.61v5.7h9.27v-5.7C607.75,694.31,606.93,691.52,603.17,691.52Zm-40.77.34a8.07,8.07,0,0,0-2.17,1.72v35.14a9.18,9.18,0,0,0,2.49,2c1.7.86,4.21.93,5.35-.58a6.36,6.36,0,0,0,.92-3.88V697.12a7.13,7.13,0,0,0-1.12-4.33A4.37,4.37,0,0,0,562.4,691.86Z"/></g></g></svg>